<svg xmlns="http://www.w3.org/2000/svg" width="52" height="36" viewBox="0 0 52 36" fill="none">
  <g clip-path="url(#clip0_7812_1443)">
    <path d="M25.2002 7.10769C25.3297 7.09636 25.4597 7.09215 25.5896 7.0951C27.471 7.12699 28.9991 8.12139 30.2545 9.46741C30.7328 9.98098 31.1516 10.5457 31.64 11.0509C29.8123 12.9021 28.9395 14.5393 26.0654 14.9354C25.8102 14.9496 25.5545 14.9496 25.2993 14.9354C22.6979 14.7969 21.0615 12.8576 19.457 11.0543C21.1656 9.2014 22.4428 7.36783 25.2002 7.10769Z" fill="white"/>
    <path d="M45.3078 19.2881C45.3187 19.2982 45.3313 19.3057 45.3413 19.3166C45.5561 19.5508 45.75 19.8201 45.9573 20.0677C46.7872 21.0428 47.5861 22.0372 48.3967 23.0282C48.8666 23.6039 49.4633 24.167 49.8409 24.8022C49.983 25.045 50.0553 25.3224 50.0499 25.6036C50.0356 25.8886 49.949 26.1653 49.7981 26.4075C49.2854 27.2467 48.5234 28.0103 47.9033 28.7807C47.0784 29.8053 46.3089 30.9726 45.3673 31.8856C44.4904 30.6973 40.5673 26.6576 40.5312 25.6078C40.5322 25.2859 40.6229 24.9706 40.7931 24.6973C41.2907 23.8447 42.1659 22.9544 42.8071 22.1975C43.6378 21.2249 44.4443 20.2305 45.3078 19.2881Z" fill="#214EE6"/>
    <path d="M5.59641 19.2109C6.13348 19.6951 6.6118 20.3262 7.09683 20.8682C8.00984 21.8887 9.24425 23.1583 9.99697 24.2685C10.1917 24.5547 10.4552 24.9835 10.4728 25.3351C10.4929 25.7203 10.3049 26.1239 10.1128 26.447C9.59418 27.308 8.82718 28.075 8.16005 28.8235C7.34327 29.7421 6.53711 30.6699 5.74159 31.607C5.68704 31.6632 5.72313 31.6389 5.62578 31.6666C5.61152 31.6573 5.59725 31.6498 5.58383 31.6397C5.33711 31.4534 4.84536 30.7578 4.62299 30.4892L2.42774 27.8232C2.05851 27.3709 1.63557 26.9152 1.31837 26.4277C1.13889 26.1659 1.02256 25.866 0.978511 25.5516C0.946767 25.232 1.01228 24.9103 1.16648 24.6285C1.51138 23.9572 2.12229 23.3614 2.60145 22.7824C3.59334 21.5849 4.61543 20.4151 5.59641 19.2109Z" fill="#214EE6"/>
    <path d="M4.53073 14.2867C5.35199 14.6783 6.15758 15.1004 6.94751 15.553C7.73744 16.0056 8.51003 16.4853 9.26527 16.9922C10.0289 17.5029 10.7671 18.0487 11.4798 18.6294C13.0155 19.894 16.8244 23.3396 17.1677 25.2495C17.2843 25.8982 16.8815 26.6249 16.5257 27.1427C14.0342 30.7821 9.05129 33.1007 4.81688 33.8803C5.70639 33.3038 6.42639 32.5729 7.17576 31.8319C8.32289 30.6822 10.7204 28.2235 11.4555 26.9245C11.7005 26.4906 11.8885 25.9938 11.8885 25.4903C11.8885 24.9868 11.7097 24.4632 11.4538 24.0201C10.8068 22.9091 9.84681 21.9986 8.97828 21.0629C7.94108 19.9295 6.88374 18.8148 5.80625 17.7189C4.99227 18.527 4.08681 19.2344 3.23758 20.0031C2.16933 20.9698 1.14555 21.986 0.0722656 22.9452C1.06415 20.118 2.74583 16.6875 4.53073 14.2867Z" fill="#8E68FF"/>
    <path d="M46.2553 14.0559C46.6917 14.5108 47.0467 15.1594 47.3832 15.6915C47.8962 16.4971 48.3806 17.32 48.8366 18.1603C49.2925 19.0006 49.718 19.8562 50.1129 20.7273C50.4897 21.5337 50.8044 22.3653 51.2039 23.1608C50.1692 22.0196 49.022 20.9446 47.9085 19.8755C47.358 19.3452 46.8234 18.7485 46.2251 18.2769C46.0422 18.1326 45.8777 18.0117 45.6377 17.9782C45.302 17.9312 44.9043 17.9782 44.6307 18.1997C44.1608 18.5757 43.142 19.9695 42.6864 20.5124L40.5885 22.9678C40.2025 23.4235 39.7778 23.8808 39.4564 24.3843C39.3029 24.626 39.2231 24.9717 39.1971 25.2587C39.1499 25.6555 39.2078 26.0578 39.365 26.4252C39.777 27.3055 40.7639 28.2906 41.3991 29.0484L43.7001 31.8109C44.6114 32.8372 45.2374 33.4364 46.5121 33.9827C46.0545 33.8926 45.5985 33.7969 45.1443 33.6957C41.3924 32.8204 36.4279 30.1712 34.3694 26.8145C34.0573 26.3052 33.7342 25.6565 33.8936 25.0456C34.0715 24.3701 34.6069 23.7281 35.0232 23.1743C37.8461 19.419 42.1904 16.3519 46.2553 14.0559Z" fill="#8E68FF"/>
    <path d="M25.8105 -3.8147e-06C26.4298 0.101535 27.0549 0.191325 27.6692 0.319716C33.4594 1.53063 38.4776 4.99804 42.4728 9.25426C43.6728 10.5331 44.8074 11.8557 45.7766 13.3208C44.554 13.9452 43.3061 14.4957 42.1011 15.162C39.7187 16.4736 37.7249 18.1502 35.8661 20.113C34.7148 21.3298 33.6726 22.5617 32.8401 24.0218C32.674 24.3288 32.5535 24.6585 32.4826 25.0003C32.2871 26.1172 32.9995 27.2618 33.6079 28.1337C35.7226 31.1656 39.7137 33.9466 43.1979 35.1247C43.9856 35.3769 44.7913 35.5694 45.6079 35.7004C43.7853 36.0033 41.3098 36.0176 39.4619 35.7952C35.8225 35.3564 32.1763 33.7687 29.6437 31.0825C29.3053 30.7316 28.9895 30.3597 28.698 29.9689C28.4345 29.6081 28.2088 29.2137 27.9293 28.8688C27.4065 28.2134 26.6823 27.767 25.8398 27.6789C25.4645 27.6457 25.0863 27.6844 24.7254 27.793C23.35 28.1874 22.8071 29.3757 21.9965 30.4254C21.4621 31.1331 20.8439 31.7732 20.1554 32.332C17.2032 34.6968 13.338 35.927 9.5685 35.9404C8.41046 35.9404 7.25494 35.7994 6.10445 35.671C7.01158 35.4243 7.89522 35.1768 8.76794 34.8218C12.0407 33.4917 15.2639 31.2873 17.3643 28.4056C17.7478 27.8778 18.1397 27.3088 18.3906 26.7054C18.5536 26.3283 18.6373 25.9216 18.6362 25.5107C18.6352 25.0998 18.5496 24.6936 18.3847 24.3172C17.1092 21.2467 12.9948 17.6878 10.2096 15.9978C8.55647 14.9966 6.85298 14.2355 5.06641 13.508C5.3576 13.0934 5.64123 12.673 5.94417 12.2668C9.66752 7.27216 15.0709 2.86825 21.0432 0.92559C22.3121 0.525584 23.6127 0.234461 24.931 0.0553811L25.0351 0.046149C25.0309 0.0587364 25.0351 0.0738432 25.0225 0.0847522C24.8933 0.242514 24.034 0.672163 23.8133 0.806428C22.8801 1.36531 21.9587 1.98125 21.0717 2.60895C16.9137 5.56783 13.4127 9.2979 10.27 13.2915C11.1931 13.4392 12.0768 13.7731 12.9554 14.0702C16.7954 15.365 19.0359 16.8931 21.5886 20.0559C22.3884 21.047 23.0991 22.5608 24.2966 23.0433C24.7631 23.2225 25.2648 23.2909 25.7622 23.2433C26.2596 23.1957 26.7392 23.0333 27.1632 22.7689C28.2902 22.0632 28.8172 20.6123 29.611 19.5852C31.9313 16.5827 34.8063 15.0839 38.298 13.8453C39.0214 13.5885 39.9251 13.4467 40.5797 13.1664C39.8689 12.0176 38.914 10.9754 38.0278 9.96084C35.7914 7.39888 33.3285 5.01566 30.5693 3.0193C29.0479 1.92251 27.43 0.942374 25.8105 -3.8147e-06Z" fill="#7546FF"/>
  </g>
  <defs>
    <clipPath id="clip0_7812_1443">
      <rect width="51.2727" height="36" fill="white"/>
    </clipPath>
  </defs>
</svg>