<?xml version="1.0" encoding="utf-8"?>
<!-- Generator: Adobe Illustrator 24.1.2, SVG Export Plug-In . SVG Version: 6.00 Build 0)  -->
<svg version="1.1" id="Calque_1" xmlns="http://www.w3.org/2000/svg" xmlns:xlink="http://www.w3.org/1999/xlink" x="0px" y="0px"
	 viewBox="0 0 204 60" style="enable-background:new 0 0 204 60;" xml:space="preserve">
<style type="text/css">
	.st0{font-family:'Rockwell-ExtraBold';}
	.st1{font-size:24px;}
	.st2{fill:#020201;}
	.st3{fill:#040302;}
	.st4{fill:#1A150D;}
	.st5{fill:#0B0A08;}
	.st6{fill:#BA974F;}
	.st7{fill:#EACC7B;}
	.st8{fill:#B9954A;}
	.st9{fill:#A08854;}
	.st10{fill:#040303;}
	.st11{fill:#B5954F;}
	.st12{fill:#8E7440;}
	.st13{fill:#E9DDA0;}
	.st14{fill:#E2D9A0;}
	.st15{fill:#BA9649;}
	.st16{fill:#C5AF6D;}
	.st17{fill:#B08A44;}
	.st18{fill:#BF984B;}
	.st19{fill:#B79147;}
	.st20{fill:#BC964B;}
	.st21{fill:#0B0906;}
	.st22{fill:#C19A4C;}
	.st23{fill:#A28345;}
	.st24{fill:#D3BF80;}
	.st25{fill:#C19849;}
	.st26{fill:#BA9449;}
	.st27{fill:#856936;}
	.st28{fill:#C59E4E;}
	.st29{fill:#B68A3F;}
	.st30{fill:#E2D293;}
	.st31{fill:#C7BB86;}
	.st32{fill:#000001;}
	.st33{fill:#AE823D;}
	.st34{fill:#080605;}
	.st35{fill:#B29B63;}
	.st36{fill:#9B7A3C;}
	.st37{fill:#896A35;}
	.st38{fill:#C9B678;}
	.st39{fill:#A68B4F;}
	.st40{fill:#0E0C09;}
	.st41{fill:#9C773A;}
	.st42{fill:#A98744;}
	.st43{fill:#C5A659;}
	.st44{fill:#D0C997;}
	.st45{fill:#D3BB75;}
	.st46{fill:#E0C273;}
	.st47{fill:#9F7737;}
	.st48{fill:#CCB97B;}
	.st49{fill:#17120C;}
	.st50{fill:#BCA66C;}
	.st51{fill:#A28140;}
	.st52{fill:#070504;}
	.st53{fill:#211B13;}
	.st54{fill:#D4C07F;}
	.st55{fill:#C7A355;}
	.st56{fill:#C8A24F;}
	.st57{fill:#AC8F51;}
	.st58{fill:#BD9242;}
	.st59{fill:#433621;}
	.st60{fill:#B8934A;}
	.st61{fill:#A98E52;}
	.st62{fill:#A08348;}
	.st63{fill:#BB984E;}
	.st64{fill:#C5C093;}
	.st65{fill:#BF9D50;}
	.st66{fill:#98773D;}
	.st67{fill:#C5A050;}
	.st68{fill:#A8945C;}
	.st69{fill:#C8B373;}
	.st70{fill:#4B3C24;}
	.st71{fill:#B5944E;}
	.st72{fill:#282117;}
	.st73{fill:#B18F48;}
	.st74{fill:#CEBF87;}
	.st75{fill:#B39047;}
	.st76{fill:#D1B56B;}
	.st77{fill:#AB8742;}
	.st78{fill:#8E723E;}
	.st79{fill:#CCB16C;}
	.st80{fill:#B28F48;}
	.st81{fill:#AA853F;}
	.st82{fill:#1B1710;}
	.st83{fill:#CDB36F;}
	.st84{fill:#A67E3B;}
	.st85{fill:#120F0B;}
	.st86{fill:#AA8948;}
	.st87{fill:#D5B96E;}
	.st88{fill:#C0984A;}
	.st89{fill:#AE8A44;}
	.st90{fill:#AA8A48;}
	.st91{fill:#282116;}
	.st92{fill:#A28041;}
	.st93{fill:#D1A750;}
	.st94{fill:#DDB75E;}
	.st95{fill:#B78E44;}
	.st96{fill:#CBA24E;}
	.st97{fill:#B3904A;}
	.st98{fill:#D4C282;}
	.st99{fill:#070706;}
	.st100{fill:#0A0806;}
	.st101{fill:#987238;}
	.st102{fill:#1A150E;}
	.st103{fill:#2C2418;}
	.st104{fill:#AC8944;}
	.st105{fill:#AF853F;}
	.st106{fill:#A28142;}
	.st107{fill:#AC8C48;}
	.st108{fill:#C29F53;}
	.st109{fill:#B4924B;}
	.st110{fill:#A7803C;}
	.st111{fill:#B9964D;}
	.st112{fill:#A38546;}
	.st113{fill:#E6DCA1;}
	.st114{fill:#B88B41;}
	.st115{fill:#352C1C;}
	.st116{fill:#332A1B;}
	.st117{fill:#C49F4F;}
</style>
<text transform="matrix(1 0 0 1 75.75 27.4644)"><tspan x="0" y="0" class="st0 st1">Fleure </tspan><tspan x="0" y="22" class="st0 st1">De Lisse</tspan></text>
<path class="st2" d="M1.2-1.2c20.2,0,40.4,0,61.2,0c0,20.2,0,40.4,0,61.2C42.2,60,22,60,1.2,60C1.2,39.8,1.2,19.6,1.2-1.2z"/>
<path class="st3" d="M36.8,15.5c1,0.9,1.5,1.8,2.1,2.9c0.1,0.3,0.1,0.3,0.3,0.5c0.3,4.6,0.3,4.6-1.1,6.6c-0.2,0.2-0.3,0.5-0.5,0.7
	c-1.7,1.7-3.7,2.5-6,2.6c-2.3-0.1-3.9-1.1-5.6-2.6c-1.7-1.8-1.9-3.6-1.9-6c0.2-2.4,1.3-3.9,3.1-5.5C30.3,12.7,33.9,13.1,36.8,15.5z"
	/>
<path class="st4" d="M55,20.5c0.8,0.2,1.2,0.6,1.7,1.3c0.4,0.9,0.5,1.7,0.2,2.7c-0.8,1.4-1.8,2.1-3.3,2.7c-3.1,0.4-5.8-0.4-8.7-1.4
	c4.5,1.7,4.5,1.7,9.3,1.9c-0.1,0.4-0.1,0.4-0.3,0.8c-1.4,0.2-2.5,0.2-3.8,0c-0.1,0.2-0.2,0.4-0.3,0.5c-0.4-0.3-0.8-0.7-1.2-1
	c-0.5-0.4-0.5-0.4-1.3-0.6c0,0.5,0,0.9,0,1.4c-0.2,0-0.4,0-0.5,0c-0.2-0.2-0.3-0.4-0.5-0.6c-0.7-0.8-1.2-1.2-2.3-1.6
	c-1.1-0.1-2-0.1-3,0.3c1-1.3,1-1.3,1.9-1.6c2.3-0.2,4.4,0.2,6.6,0.8c-0.8-0.3-1.6-0.5-2.5-0.8c0-0.1,0-0.2,0-0.3c1.6,0,3.2,0,4.9,0
	c0.7-1.3,0.7-1.3,0.4-2.3c-0.1-0.9-0.1-0.9,0.3-1.6C53.5,20.6,54.1,20.4,55,20.5z"/>
<path class="st5" d="M10.4,20.9c-0.5,0.3-0.5,0.3-1.3,0.2c-0.9,0-0.9,0-1.5,0.6c-0.5,0.9-0.6,1.4-0.4,2.4c0.7,1,1.3,1.8,2.5,2.2
	c0.7,0,0.7,0,1.4,0c-0.2-0.2-0.4-0.4-0.5-0.5c0-0.7,0-0.7,0-1.4c0.2,0.1,0.3,0.2,0.5,0.3c0.7,0.3,1.1,0.3,1.8,0.3c0.3,0,0.3,0,0.7,0
	c0.2,0,0.4,0,0.7,0c0.3,0,0.3,0,0.7,0c1.1,0.1,1.1,0.1,2-0.3c-0.3,0-0.3,0-0.6,0.1c-0.2,0-0.5,0-0.7-0.1c-0.2-0.3-0.4-0.5-0.5-0.8
	c4-1.1,4-1.1,5.6-0.2c0.4,0.3,0.9,0.6,1.3,0.9c0.5,0.4,0.5,0.4,1.1,0.4c0.2-0.2,0.4-0.4,0.5-0.5c0.7,1,0.9,1.6,0.8,2.7
	c-0.6-0.5-1.3-0.9-1.9-1.4c0,0.6,0,0.6,0.3,1.1c-0.2,0-0.4-0.1-0.6-0.1c-1.7-0.3-1.7-0.3-3.3,0.2c-1.1,0.8-1.1,0.8-1.9,1.8
	c-0.2,0-0.4,0-0.5,0c0-0.5,0-0.9,0-1.4c-1.1,0.4-1.9,0.9-2.7,1.6c0-0.2,0-0.4,0-0.5c-1.8,0.1-1.8,0.1-3.6,0.3
	c-0.2-0.4-0.4-0.7-0.5-1.1c0.3,0,0.5,0,0.8,0c0.3,0,0.7,0,1,0c0.5,0,0.5,0,1,0c1.1-0.1,1.7-0.4,2.6-0.9c-0.1,0-0.3,0.1-0.4,0.1
	c-1.9,0.4-4.1,0.6-5.8-0.5c-1.2-0.9-1.9-1.6-2.2-3.2c0.1-1.3,0.6-1.9,1.5-2.8C9,20.3,9.5,20.5,10.4,20.9z"/>
<path class="st6" d="M36.8,15.5c1,0.9,1.5,1.8,2.1,2.9c0.1,0.3,0.1,0.3,0.3,0.5c0.3,4.6,0.3,4.6-1.1,6.6c-0.2,0.2-0.3,0.5-0.5,0.7
	c-1.7,1.7-3.7,2.5-6,2.6c-2.3-0.1-3.9-1.1-5.6-2.6c-1.7-1.8-1.9-3.6-1.9-6c0.2-2.4,1.3-3.9,3.1-5.5C30.3,12.7,33.9,13.1,36.8,15.5z
	 M26.2,16.6C25,18.2,24.5,20,24.7,22c0.4,2.3,1.4,3.8,3.2,5.3c1.8,1.1,4.2,1,6.2,0.6c1.7-0.5,2.9-1.7,3.8-3.3c0.9-2.1,1.1-4,0.3-6.2
	c-0.8-1.8-2.2-3.1-4-3.8C31.2,13.8,28.4,14.3,26.2,16.6z"/>
<path class="st7" d="M31.2,16c0.8,0.1,1.1,0.2,1.6,0.9c0.7,1.6,0.3,3-0.2,4.6c0.1-0.1,0.3-0.3,0.4-0.4c0.8-0.5,1.3-0.5,2.3-0.4
	c0.5,0.8,0.5,0.8,0.4,1.7c-0.1,0.4-0.1,0.4-0.2,0.8c-0.2,0-0.4,0-0.5,0c-0.1-0.7-0.1-0.7-0.3-1.4c-0.1,0-0.2,0-0.3,0
	c0.1,0.5,0.2,0.9,0.3,1.4c-0.2,0-0.4,0-0.5,0c0-0.3,0-0.5,0-0.8c-0.7,0.1-0.7,0.1-1.4,0.5c-0.3,0.8-0.3,0.8-0.5,1.8
	c-0.1,0.3-0.1,0.6-0.2,1c0,0.3-0.1,0.5-0.1,0.8c-0.3,0-0.5,0-0.8,0c-0.1-0.5-0.2-1.1-0.3-1.6c-0.3-0.1-0.5-0.2-0.8-0.3
	c0.2,0,0.4,0,0.5,0c-0.1-0.7-0.2-1.4-0.3-2.2c-0.5,0-0.9,0-1.4,0c-0.1,0.3-0.2,0.5-0.3,0.8c-0.1-0.4-0.2-0.7-0.3-1.1
	c-0.2,0.4-0.4,0.7-0.5,1.1c-0.3-0.3-0.3-0.3-0.3-1.1c0.1-0.8,0.1-0.8,0.6-1.4c1.4-0.2,1.4-0.2,2.2,0.4c0.1,0.1,0.2,0.3,0.3,0.4
	c-0.1-0.3-0.2-0.6-0.3-0.8c-0.3-1-0.4-1.9-0.3-3C30.7,16.7,30.7,16.7,31.2,16z"/>
<path class="st8" d="M36.8,13.5c0.8,0.6,1.4,1.2,2.1,1.9c0.2,0.2,0.4,0.4,0.6,0.6c1.5,2.2,1.4,4.4,1.3,7c-0.3,0-0.5,0-0.8,0
	c0-0.2,0-0.5,0-0.7c-0.1-2.9-0.5-5.4-2.7-7.5c-2.4-1.6-4.8-2-7.7-1.6c-2.3,0.7-3.8,1.8-5,3.9c-0.9,1.9-1,3.7-1.1,5.7
	c-0.4,0.1-0.4,0.1-0.8,0.3c-0.2-3.2,0.2-5.7,2.2-8.3C28.2,11.6,32.9,11.3,36.8,13.5z"/>
<path class="st9" d="M10.4,20.9c-0.5,0.3-0.5,0.3-1.3,0.2c-0.9,0-0.9,0-1.5,0.6c-0.5,0.9-0.6,1.4-0.4,2.4c0.7,1,1.3,1.7,2.5,2.2
	c2.5,0.3,4.6-0.2,7-0.9c1.2-0.3,2.2-0.3,3.4-0.2c0,0.1,0,0.2,0,0.3c-0.8,0.2-1.6,0.4-2.5,0.5c1.3,0,2.5,0,3.8,0c0,0.1,0,0.2,0,0.3
	c-0.2,0-0.4,0-0.5,0.1c-1.7,0.3-2.6,0.6-3.8,1.8c-0.1,0.2-0.2,0.4-0.3,0.5c-0.2,0-0.4,0-0.5,0c0-0.5,0-0.9,0-1.4
	c-1.1,0.4-1.9,0.9-2.7,1.6c0-0.2,0-0.4,0-0.5c-1.8,0.1-1.8,0.1-3.6,0.3c-0.2-0.4-0.4-0.7-0.5-1.1c0.3,0,0.5,0,0.8,0c0.3,0,0.7,0,1,0
	c0.5,0,0.5,0,1,0c1.1-0.1,1.7-0.4,2.6-0.9c-0.1,0-0.3,0.1-0.4,0.1c-1.9,0.4-4.1,0.6-5.8-0.5c-1.2-0.9-1.9-1.6-2.2-3.2
	c0.1-1.3,0.6-1.9,1.5-2.8C9,20.3,9.5,20.5,10.4,20.9z"/>
<path class="st10" d="M9.5,20.9c0.6,0.1,0.6,0.1,1.2,0.3c0.6,0.9,0.6,1.1,0.4,2.1c0,0.3,0,0.3-0.1,0.7c0,0.2-0.1,0.3-0.1,0.5
	c-0.2,0-0.4,0-0.5,0c0.2,0.5,0.4,1.1,0.5,1.6c0.7,0.1,1.4,0.2,2.2,0.3c0,0.1,0,0.2,0,0.3c-3.2,0.2-3.2,0.2-4.5-0.5
	C7,24.6,7,24.6,6.7,23.4C7,21.7,7.8,20.7,9.5,20.9z"/>
<path class="st11" d="M32.6,38.1c1.4-0.1,2.4-0.2,3.6,0.5c0.7,1.2,0.8,2.2,0.5,3.6c-0.5,0.8-0.8,1.2-1.6,1.6c-0.4,0-0.8,0-1.3,0
	c-0.3,0-0.3,0-0.7,0c-0.2,0-0.3,0-0.5,0c0.1-0.2,0.2-0.4,0.3-0.5c0.1-0.8,0.1-1.6,0.2-2.4c0-0.2,0-0.4,0-0.7c0-0.5,0.1-1.1,0.1-1.6
	c-0.2,0-0.4,0-0.5,0C32.6,38.5,32.6,38.3,32.6,38.1z"/>
<path class="st12" d="M48,25.8c2,0.6,3.9,0.8,5.9,0.5c0.5-0.3,0.9-0.5,1.4-0.8c0.2,0.1,0.4,0.2,0.5,0.3c-1.8,1.5-3.4,1.7-5.7,1.5
	c-1.8-0.3-3.5-0.9-5.2-1.5c4.5,1.7,4.5,1.7,9.3,1.9c-0.1,0.3-0.2,0.5-0.3,0.8c-1.4,0.2-2.5,0.2-3.8,0c-0.1,0.2-0.2,0.4-0.3,0.5
	c-0.4-0.3-0.8-0.7-1.2-1c-0.5-0.4-0.5-0.4-1.3-0.6c0,0.5,0,0.9,0,1.4c-0.2,0-0.4,0-0.5,0c-0.2-0.2-0.3-0.4-0.5-0.6
	c-0.7-0.8-1.2-1.2-2.3-1.6c-1.1-0.1-2-0.1-3,0.3C42.9,24.5,45.4,25,48,25.8z"/>
<path class="st13" d="M31.2,16c0.1,0,0.2,0,0.3,0c0,3.4,0,6.9,0,10.4c-0.2-0.2-0.4-0.4-0.5-0.5c0-0.4,0-0.7,0-1.1
	c-0.3-0.1-0.5-0.2-0.8-0.3c0.2,0,0.4,0,0.5,0c-0.1-0.7-0.2-1.4-0.3-2.2c-0.5,0-0.9,0-1.4,0c-0.1,0.3-0.2,0.5-0.3,0.8
	c-0.1-0.4-0.2-0.7-0.3-1.1c-0.2,0.4-0.4,0.7-0.5,1.1c-0.3-0.3-0.3-0.3-0.3-1.1c0.1-0.8,0.1-0.8,0.6-1.4c1.4-0.2,1.4-0.2,2.2,0.4
	c0.1,0.1,0.2,0.3,0.3,0.4c-0.1-0.3-0.2-0.6-0.3-0.8c-0.4-1.5-0.5-2.6,0.3-3.9C30.9,16.5,31,16.2,31.2,16z"/>
<path class="st14" d="M27.4,38.1c0.4,0,0.8,0,1.2-0.1c0.3,0,0.3,0,0.7,0c0.6,0.1,0.6,0.1,1.1,0.5c0.5,0.6,0.4,1,0.3,1.8
	c-0.1,0.2-0.2,0.3-0.3,0.5c-0.3,0.6-0.3,0.6-0.1,1.2c0.1,0.2,0.2,0.4,0.3,0.7c0.1,0.2,0.2,0.4,0.3,0.7c0.1,0.2,0.2,0.3,0.3,0.5
	c-0.6,0-0.6,0-1.4-0.3c-0.5-0.8-0.5-0.8-0.8-1.6c0,1,0,1,0.3,1.9c-0.6,0-1.3,0-1.9,0c0.1-0.2,0.2-0.4,0.3-0.5
	c0.1-0.8,0.1-1.6,0.2-2.4c0-0.2,0-0.4,0-0.7c0-0.5,0.1-1.1,0.1-1.6c-0.2,0-0.4,0-0.5,0C27.4,38.5,27.4,38.3,27.4,38.1z"/>
<path class="st15" d="M18.1,33.8c0.7-0.1,0.7-0.1,1.4-0.1c0.2,0,0.5,0,0.8,0c0.2,0,0.4,0,0.6,0c-0.1,0.5-0.2,0.9-0.3,1.4
	c0.4,0,0.7,0,1.1,0c-0.1-0.5-0.2-0.9-0.3-1.4c0.3,0.1,0.5,0.2,0.8,0.3c-0.1,0.9-0.2,1.8-0.3,2.7c-0.1,0-0.2,0-0.3,0
	c0-0.5,0-0.9,0-1.4c-0.4,0-0.7,0-1.1,0c0.1,0.5,0.2,1.1,0.3,1.6c-0.4,0-0.9,0-1.3,0.1c-0.4,0-0.4,0-0.7,0c-0.3,0-0.3,0-0.7-0.1
	c-0.6-0.9-0.6-1.3-0.5-2.5C17.7,34.3,17.9,34,18.1,33.8z"/>
<path class="st16" d="M23,38.1c0.5,0,1.1,0,1.6,0c0,1.7,0,3.4,0,5.2c0.4-0.1,0.7-0.2,1.1-0.3c0.2-1.4,0.4-2.9,0.5-4.4
	c-0.3,0-0.5,0-0.8,0c0-0.2,0-0.4,0-0.5c0.5,0,1.1,0,1.6,0c0,0.2,0,0.4,0,0.5c-0.2,0-0.4,0-0.5,0c0,0.3,0,0.6,0,0.8
	c0,0.4,0,0.7,0,1.1c0,0.3,0,0.3,0,0.6c0,1-0.1,1.5-0.6,2.4c-0.2,0.2-0.4,0.4-0.5,0.6c-0.6-0.1-0.6-0.1-1.4-0.3c-0.9-1.2-1-2.2-1-3.6
	c0-0.2,0-0.4,0-0.6C23.1,39.1,23,38.6,23,38.1z"/>
<path class="st17" d="M49,23.6c0,0.2,0,0.4,0,0.5c-1,0.7-1.5,0.6-2.8,0.5c-2.9-0.1-4.6,0.6-6.8,2.5c0.2-1.8,0.2-1.8,0.7-2.4
	c0.2-0.1,0.2-0.1,0.4-0.3c0.1,0.2,0.2,0.4,0.3,0.5c0.8-0.3,1.4-0.6,2.1-1.1C44.7,22.8,47,23.4,49,23.6z"/>
<path class="st18" d="M19.5,38.1c1,0,2,0,3,0c0,0.5,0,0.9,0,1.4c-0.2-0.2-0.4-0.4-0.5-0.5c-0.6-0.2-0.6-0.2-1.1-0.3
	c0,0.6,0,1.3,0,1.9c0.5-0.2,0.9-0.4,1.4-0.5c0,0.6,0,1.3,0,1.9c-0.5-0.3-0.9-0.5-1.4-0.8c0,0.7,0,1.4,0,2.2c0.5,0,0.9,0,1.4,0
	c0.2-0.4,0.4-0.7,0.5-1.1c0,0.5,0,1.1,0,1.6c-1.1,0-2.2,0-3.3,0c0.1-0.2,0.2-0.4,0.3-0.5c0.1-0.8,0.1-1.6,0.2-2.4c0-0.2,0-0.4,0-0.7
	c0-0.5,0.1-1.1,0.1-1.6c-0.2,0-0.4,0-0.5,0C19.5,38.5,19.5,38.3,19.5,38.1z"/>
<path class="st19" d="M37,38.1c1,0,2,0,3,0c0,0.5,0,0.9,0,1.4c-0.2-0.2-0.4-0.4-0.5-0.5c-0.6-0.2-0.6-0.2-1.1-0.3c0,0.6,0,1.3,0,1.9
	c0.4,0,0.7,0,1.1,0c0.1-0.2,0.2-0.4,0.3-0.5c0,0.6,0,1.3,0,1.9c-0.5-0.3-0.9-0.5-1.4-0.8c0,0.7,0,1.4,0,2.2c0.5,0,0.9,0,1.4,0
	c0.2-0.4,0.4-0.7,0.5-1.1c0,0.5,0,1.1,0,1.6c-1.1,0-2.2,0-3.3,0c0.1-0.2,0.2-0.4,0.3-0.5c0.1-0.8,0.1-1.6,0.2-2.4c0-0.2,0-0.4,0-0.7
	c0-0.5,0.1-1.1,0.1-1.6c-0.2,0-0.4,0-0.5,0C37,38.5,37,38.3,37,38.1z"/>
<path class="st20" d="M21.1,24.2c0.2,0.2,0.4,0.3,0.6,0.5c0.5,0.4,0.5,0.4,1.1,0.4c0.2-0.2,0.4-0.4,0.5-0.5c0.7,1,0.9,1.6,0.8,2.7
	c-0.1-0.1-0.3-0.2-0.4-0.3c-2.4-1.9-4.4-2.2-7.5-2.1c-0.3,0-0.6,0-0.9-0.1c-0.2-0.3-0.4-0.5-0.5-0.8C19,22.8,19,22.8,21.1,24.2z"/>
<path class="st21" d="M34,33.8c1.1,0,2.2,0,3.3,0c-0.1,0.3-0.2,0.5-0.3,0.8c0-0.2,0-0.4,0-0.5c-0.2,0-0.4,0-0.5,0
	c0.1,0.2,0.3,0.4,0.4,0.6c0.4,0.8,0.5,1.2,0.4,2.1c-1.2,0.3-2.3,0.3-3.6,0.3C33.8,36,33.9,34.9,34,33.8z M34.8,34
	c0.1,0.4,0.2,0.7,0.3,1.1c0.2-0.2,0.4-0.4,0.5-0.5C35.3,34.4,35.1,34.2,34.8,34z"/>
<path class="st22" d="M24.4,19.3c0.1,0,0.2,0,0.3,0c0,0.3,0.1,0.5,0.1,0.8c0.4,3.5,0.4,3.5,2.3,6.2c1.9,1.3,3.5,1.7,5.8,2
	c0,0.2,0,0.4,0,0.5c-2.6,0.2-4.4-0.3-6.4-2C25,25.5,24.2,24,24.1,22c0-0.3,0-0.6,0-0.9c0-0.3,0-0.6,0-0.9
	C24.1,19.5,24.1,19.5,24.4,19.3z"/>
<path class="st23" d="M45.7,33.8c0.5,0,1.1,0,1.6,0c-0.1,0.3-0.2,0.5-0.3,0.8c-0.3-0.2-0.5-0.4-0.8-0.5c0,0.4,0,0.7,0,1.1
	c0.3-0.1,0.5-0.2,0.8-0.3c-0.1,0.3-0.2,0.5-0.3,0.8c-0.2-0.1-0.4-0.2-0.5-0.3c0,0.5,0,0.9,0,1.4c0.3,0,0.5,0,0.8,0
	c0.1-0.2,0.2-0.4,0.3-0.5c0.1,0.1,0.2,0.2,0.3,0.3c0-0.9,0-1.8,0-2.7c0.3,0,0.5,0,0.8,0c0,1,0,2,0,3c0.2,0,0.4,0,0.5,0
	c0-0.3,0-0.5,0-0.8c0.3,0,0.5,0,0.8,0c0,0.3,0,0.5,0,0.8c0.2,0,0.4,0,0.5,0c-0.1-0.2-0.3-0.4-0.4-0.6c-0.4-0.8-0.5-1.2-0.4-2.1
	c0.5-0.1,0.9-0.2,1.4-0.3c-0.1,0.3-0.2,0.5-0.3,0.8c0,0.2,0,0.4,0,0.5c0.1,0.1,0.2,0.2,0.3,0.3c0,0.5,0,0.9,0,1.4
	c-1.2,0.3-2.3,0.3-3.5,0.3c-0.2,0-0.4,0-0.6,0c-0.5,0-0.9,0-1.4,0C45.5,36,45.6,34.9,45.7,33.8z"/>
<path class="st24" d="M45.4,26.4c1.4,0.1,2.5,0.4,3.8,0.8c1.7,0.6,3.2,0.6,5,0.5c-0.1,0.3-0.2,0.5-0.3,0.8c-1.4,0.2-2.5,0.2-3.8,0
	c-0.1,0.2-0.2,0.4-0.3,0.5c-0.4-0.3-0.8-0.7-1.2-1c-0.5-0.4-0.5-0.4-1.3-0.6c0,0.5,0,0.9,0,1.4c-0.2,0-0.4,0-0.5,0
	C45.4,27.4,45.4,27.4,45.4,26.4z"/>
<path class="st25" d="M44.6,38.1c0.5,0,1.1,0,1.6,0c0,0.3,0.1,0.5,0.1,0.8c0.1,0.8,0.1,0.8,0.4,1.1c0.1-0.6,0.2-1.3,0.3-1.9
	c0.5,0,0.9,0,1.4,0c0,0.2,0,0.4,0,0.5c-0.3,0.1-0.3,0.1-0.5,0.3c-0.8,1.6-0.6,3.2-0.5,4.9c-0.6,0-1.3,0-1.9,0
	c0.1-0.2,0.2-0.4,0.3-0.5c0.2-1.6,0-2.8-0.9-4.2C44.6,38.7,44.6,38.7,44.6,38.1z"/>
<path class="st26" d="M27.1,13.2c0.2,0.3,0.4,0.5,0.5,0.8c-0.2,0.2-0.5,0.3-0.8,0.5c-1.7,1.2-2.5,2.7-3.1,4.7
	c-0.2,1.2-0.2,2.4-0.3,3.6c-0.4,0.1-0.4,0.1-0.8,0.3c-0.2-3.3,0.2-5.7,2.3-8.3C25.7,14.1,26.3,13.7,27.1,13.2z"/>
<path class="st27" d="M41.9,38.1c0.6,0,1.3,0,1.9,0c-0.1,0.2-0.2,0.4-0.3,0.5c-0.1,0.8-0.1,1.6-0.2,2.4c0,0.2,0,0.4,0,0.7
	c0,0.5-0.1,1.1-0.1,1.6c0.4,0,0.7,0,1.1,0c0.2-0.4,0.4-0.7,0.5-1.1c0,0.5,0,1.1,0,1.6c-1.1,0-2.2,0-3.3,0c0.1-0.2,0.2-0.4,0.3-0.5
	c0-0.4,0-0.8,0-1.2c0-0.2,0-0.5,0-0.7c0-0.2,0-0.5,0-0.7c0-0.4,0-0.4,0-0.7C41.9,39.3,41.9,38.7,41.9,38.1z"/>
<path class="st28" d="M50.9,38.1c0,0.5,0,1.1,0,1.6c-0.1-0.2-0.2-0.4-0.4-0.5c-0.1-0.2-0.3-0.4-0.4-0.5c-0.2,0-0.4,0-0.5,0
	c0.1,1,0.3,1.4,1,2.2c0.6,0.8,0.6,0.8,0.6,1.7c-0.4,1.2-0.4,1.2-1.1,1.6c-1.2-0.1-1.2-0.1-1.6-0.5c0-0.5,0-0.9,0-1.4
	c0.2,0.2,0.3,0.4,0.5,0.5c0.5,0.6,0.5,0.6,1.1,0.5c-0.1-1-0.3-1.4-1-2.2c-0.7-0.8-0.7-0.8-0.8-1.6c0.1-0.6,0.1-0.6,0.4-1.1
	C49.5,38,50.1,38.1,50.9,38.1z"/>
<path class="st29" d="M12.9,38.1c1,0,2,0,3,0c0,0.5,0,0.9,0,1.4c-0.2-0.1-0.4-0.2-0.5-0.3c0-0.2,0-0.4,0-0.5c-0.4,0-0.7,0-1.1,0
	c0,0.7,0,1.4,0,2.2c0.8-0.2,0.8-0.2,1.4-0.8c0,0.6,0,1.3,0,1.9c-0.1-0.2-0.2-0.4-0.3-0.5c-0.4,0-0.7,0-1.1,0
	c0.1,1.3,0.1,1.3,0.5,2.5c-0.6,0-1.3,0-1.9,0c0.1-0.2,0.2-0.4,0.3-0.5c0.1-0.8,0.1-1.6,0.2-2.4c0-0.2,0-0.4,0-0.7
	c0-0.5,0.1-1.1,0.1-1.6c-0.2,0-0.4,0-0.5,0C12.9,38.5,12.9,38.3,12.9,38.1z"/>
<path class="st30" d="M17.6,26.6c-0.1,0.9-0.3,1.4-0.8,2.2c-0.2,0-0.4,0-0.5,0c0-0.5,0-0.9,0-1.4c-1.1,0.4-1.9,0.9-2.7,1.6
	c0-0.2,0-0.4,0-0.5c-1.8,0.1-1.8,0.1-3.6,0.3c-0.2-0.4-0.4-0.7-0.5-1.1c0.2,0,0.5,0,0.8,0c1.9,0.1,3.3,0,5-0.9
	C16,26.5,16.6,26.6,17.6,26.6z"/>
<path class="st31" d="M26,33.8c0.3,0,0.5,0,0.8,0c0.5,0.7,0.5,0.7,0.8,1.4c0-0.5,0-0.9,0-1.4c0.9,0,1.8,0,2.7,0
	c-0.1,0.3-0.2,0.5-0.3,0.8c-0.3-0.2-0.5-0.4-0.8-0.5c0,0.4,0,0.7,0,1.1c0.3-0.1,0.5-0.2,0.8-0.3c-0.1,0.4-0.2,0.7-0.3,1.1
	c0-0.2,0-0.4,0-0.5c-0.2,0-0.4,0-0.5,0c0,0.5,0,0.9,0,1.4c0.4-0.2,0.7-0.4,1.1-0.5c0,0.3,0,0.5,0,0.8c-0.6,0-1.3,0-1.9,0
	c0.1-1,0.2-2,0.3-3c-0.2,0-0.4,0-0.5,0c0,1,0,2,0,3c-1.1-1-1.1-1-1.4-1.6c0,0.5,0,1.1,0,1.6c-0.3-0.1-0.5-0.2-0.8-0.3
	C26,35.8,26,34.8,26,33.8z"/>
<path class="st32" d="M34,38.7c0.7,0.1,0.7,0.1,1.4,0.3c0.4,0.7,0.3,1.2,0.3,2c0,0.3,0,0.5,0,0.8c-0.1,0.7-0.1,0.7-0.6,1.5
	c-0.4,0-0.7,0-1.1,0C34,41.8,34,40.3,34,38.7z"/>
<path class="st33" d="M16.2,38.1c0.6,0,1.3,0,1.9,0c0,0.2,0,0.4,0,0.5c-0.2,0-0.4,0-0.5,0c0,1.5,0,3.1,0,4.6
	c0.4-0.1,0.7-0.2,1.1-0.3c0.1-0.3,0.2-0.5,0.3-0.8c0.2,0,0.4,0,0.5,0c-0.1,0.5-0.2,1.1-0.3,1.6c-1,0-2,0-3,0
	c0.1-0.2,0.2-0.4,0.3-0.5c0.1-0.8,0.1-1.6,0.2-2.4c0-0.2,0-0.4,0-0.7c0-0.5,0.1-1.1,0.1-1.6c-0.2,0-0.4,0-0.5,0
	C16.2,38.5,16.2,38.3,16.2,38.1z"/>
<path class="st34" d="M30.4,13.2c0.1,0.2,0.2,0.4,0.3,0.5c-0.2,0.1-0.2,0.1-0.5,0.1c-2.4,0.7-3.9,1.8-5.3,4
	c-0.2,0.5-0.4,1.1-0.5,1.6c-0.3,0.1-0.5,0.2-0.8,0.3c0.5-2.5,1.4-4.3,3.6-5.7C29.3,12.9,29.3,12.9,30.4,13.2z"/>
<path class="st35" d="M29,20.5c0.9,0.1,1.3,0.2,1.9,0.9c0.3,0.9,0.3,1.8,0.3,2.8c0,0.3,0,0.6,0,0.9c0,0.2,0,0.4,0,0.7
	c0-0.3,0-0.3-0.1-0.5c-0.1-0.2-0.1-0.4-0.2-0.6c-0.3-0.1-0.5-0.2-0.8-0.3c0.2,0,0.4,0,0.5,0c-0.1-0.7-0.2-1.4-0.3-2.2
	c-0.5,0-0.9,0-1.4,0c-0.1,0.3-0.2,0.5-0.3,0.8c-0.1-0.4-0.2-0.7-0.3-1.1c-0.2,0.4-0.4,0.7-0.5,1.1c-0.3-0.3-0.3-0.3-0.3-1.1
	C27.7,20.9,27.9,20.7,29,20.5z"/>
<path class="st36" d="M41.3,33.8c0.7-0.1,0.7-0.1,1.4,0c0.6,0.9,0.6,1.3,0.5,2.5C43,36.6,43,36.6,42.7,37c-1.3-0.2-1.3-0.2-1.9-0.8
	C40.7,35.1,40.7,34.7,41.3,33.8z"/>
<path class="st37" d="M12.6,33.8c0.3,0,0.5,0,0.8,0c0.1,0.9,0.2,1.8,0.3,2.7c0.3,0,0.5,0,0.8,0c0.3-0.9,0.5-1.8,0.8-2.7
	c0.2,0,0.4,0,0.5,0c0.3,1.1,0.5,2.2,0.8,3.3c-0.4-0.1-0.7-0.2-1.1-0.3c0-0.3,0-0.5,0-0.8c-0.2,0-0.4,0-0.5,0c0,0.4,0,0.7,0,1.1
	c-0.9,0-1.8,0-2.7,0C12.5,36,12.5,34.9,12.6,33.8z"/>
<path class="st38" d="M31.5,33.8c0.5,0,1.1,0,1.6,0c0.5,0.8,0.5,0.8,0.5,1.8c-0.2,0.9-0.2,0.9-0.8,1.5c-0.5,0-1.1,0-1.6,0
	C31.3,36,31.4,34.9,31.5,33.8z"/>
<path class="st39" d="M24.9,32.9c0.3,0.1,0.5,0.2,0.8,0.3c0,1.3,0,2.5,0,3.8c-0.7,0-1.4,0-2.2,0c0-0.4,0-0.7,0-1.1
	c-0.2,0-0.4,0-0.5,0c0,0.4,0,0.7,0,1.1c-0.2,0-0.4,0-0.5,0c0.3-1.1,0.5-2.2,0.8-3.3c0.2,0,0.4,0,0.5,0c0.2,1,0.4,2,0.5,3
	c0.2,0,0.4,0,0.5,0c0-0.3,0-0.5-0.1-0.8c0-0.3-0.1-0.7-0.1-1c0-0.5,0-0.5-0.1-1c0-0.3,0-0.5,0-0.8C24.8,33.1,24.8,33,24.9,32.9z"/>
<path class="st40" d="M47.6,25c1.4,0.6,2.8,1.2,4.4,1.4c0,0.1,0,0.2,0,0.3c-1.4,0.1-2.5-0.1-3.9-0.5c-1.7-0.5-3.3-0.7-5.1-0.5
	c-0.1,0.2-0.2,0.4-0.3,0.5c-0.4-0.1-0.7-0.2-1.1-0.3c0-0.2,0-0.4,0-0.5C43.7,24.5,45.6,23.9,47.6,25z"/>
<path class="st41" d="M10.4,21.2c0.4,0.3,0.4,0.3,0.8,0.8c0,0.9-0.1,1.4-0.6,2.2c-0.7,0.5-1.3,0.4-2.1,0.3C8,23.6,8,23.6,8.2,22.6
	c0.1-0.3,0.2-0.6,0.4-0.9c0.3-0.1,0.5-0.2,0.8-0.3c0.1,0.7,0.2,1.4,0.3,2.2c0.4-0.1,0.7-0.2,1.1-0.3C10.6,22.6,10.5,21.9,10.4,21.2z
	"/>
<path class="st42" d="M35.3,20.6c0.5,0.8,0.5,0.8,0.4,1.7c-0.1,0.3-0.1,0.5-0.2,0.8c-0.2,0-0.4,0-0.5,0c-0.1-0.5-0.2-0.9-0.3-1.4
	c-0.1,0-0.2,0-0.3,0c0.1,0.5,0.2,0.9,0.3,1.4c-0.2,0-0.4,0-0.5,0c0-0.3,0-0.5,0-0.8c-0.6,0.2-1.3,0.4-1.9,0.5
	c-0.1-0.5-0.2-0.9-0.3-1.4C33.2,20.9,34,20.5,35.3,20.6z"/>
<path class="st43" d="M52.6,24.5c0.2,0,0.4,0,0.5,0c0.1,0.6,0.1,0.6,0,1.4c-1,0.7-1.6,0.7-2.7,0.5c-1.1-0.3-2.2-0.7-3.3-1.1
	c0-0.1,0-0.2,0-0.3c0.3,0,0.7,0,1.1,0c0.5,0,0.9,0,1.4,0c0.3,0,0.3,0,0.7,0c0.3,0,0.3,0,0.7,0c0.2,0,0.4,0,0.6,0
	C52.1,25,52.1,25,52.6,24.5z"/>
<path class="st44" d="M27.4,38.1c0.4,0,0.8,0,1.2-0.1c0.3,0,0.3,0,0.7,0c0.6,0.1,0.6,0.1,1.1,0.5c0.3,0.4,0.3,0.4,0.5,1.1
	c-0.1,0.7-0.1,0.7-0.6,1.2c-0.6,0.3-0.6,0.3-1.4,0.3c0-0.9,0-1.8,0-2.7c-0.5,0.1-0.9,0.2-1.4,0.3C27.4,38.5,27.4,38.3,27.4,38.1z"/>
<path class="st45" d="M10.4,24.5c0.2,0.1,0.3,0.2,0.5,0.3c0.7,0.3,1.1,0.3,1.8,0.3c0.2,0,0.4,0,0.7,0c0.2,0,0.5,0,0.7,0
	c0.3,0,0.3,0,0.7,0c0.6,0,1.1,0,1.7,0c-1.8,0.9-3.4,1.5-5.5,1.4c-0.5-0.5-0.5-0.5-0.6-1.3C10.4,24.9,10.4,24.7,10.4,24.5z"/>
<path class="st46" d="M32.9,38.4c0.4,0,0.7,0,1.1,0c0,0.3,0,0.7,0.1,1.1c0,0.5,0,0.9,0.1,1.4c0,0.2,0,0.5,0,0.7c0,0.2,0,0.4,0,0.7
	c0,0.2,0,0.4,0,0.6c0,0.5,0,0.5,0.3,1.1c-0.6,0-1.3,0-1.9,0c0.1-0.2,0.2-0.4,0.3-0.5c0-0.4,0-0.8,0-1.1c0-0.2,0-0.4,0-0.7
	c0-0.2,0-0.5,0-0.7c0-0.2,0-0.5,0-0.7C32.9,39.5,32.9,39,32.9,38.4z"/>
<path class="st47" d="M54.2,21.4c0.5,0.2,0.5,0.2,1.1,0.5c0.2,1,0.2,1,0.3,1.9c-0.5,0.5-0.5,0.5-1.3,0.7c-0.9-0.1-0.9-0.1-1.5-0.8
	c-0.1-0.2-0.3-0.5-0.4-0.7c0.1-0.3,0.2-0.5,0.3-0.8c0.1,0.4,0.2,0.7,0.3,1.1c0.4,0.1,0.7,0.2,1.1,0.3C54,22.9,54.1,22.2,54.2,21.4z"
	/>
<path class="st48" d="M33.7,12.4c0,0.2,0,0.4,0,0.5c-0.4,0-0.4,0-0.8,0c-0.4,0-0.7,0-1.1,0.1c-0.2,0-0.4,0-0.6,0
	c-1.1,0.1-1.9,0.3-2.9,0.7c-0.3,0-0.5,0-0.8,0c0.3-0.8,0.3-0.8,1.2-1.3C30.1,12,32.2,11.7,33.7,12.4z"/>
<path class="st49" d="M45.7,33.5c1,0,2,0,3,0c-0.1,0.2-0.2,0.4-0.3,0.5c-0.2,0-0.4,0-0.5,0c0,0.8,0,1.6,0,2.5
	c-0.8,0.3-0.8,0.3-1.6,0.3c0-0.5,0-0.9,0-1.4c0.2-0.1,0.4-0.2,0.5-0.3c-0.2,0-0.4,0-0.5,0c0-0.4,0-0.7,0-1.1
	c0.3,0.1,0.5,0.2,0.8,0.3c0.1-0.2,0.2-0.4,0.3-0.5c-0.5,0-1.1,0-1.6,0C45.7,33.7,45.7,33.6,45.7,33.5z"/>
<path class="st50" d="M55.3,25.6c0.2,0.1,0.4,0.2,0.5,0.3c-1.7,1.4-3.1,1.5-5.3,1.5c-1.1-0.1-1.9-0.3-2.9-0.9c0-0.1,0-0.2,0-0.3
	c0.3,0,0.7,0.1,1,0.1c1.2,0.1,2.3,0.2,3.5,0.2c0.3,0,0.6,0,1,0C54,26.4,54.5,26.1,55.3,25.6z"/>
<path class="st51" d="M38.3,33.8c0.3,0,0.5,0,0.8,0c0,0.5,0,0.9,0,1.4c0.3,0,0.5,0,0.8,0c-0.1-0.5-0.2-0.9-0.3-1.4
	c0.3,0,0.5,0,0.8,0c0.1,1.1,0.2,2.2,0.3,3.3c-0.4-0.1-0.7-0.2-1.1-0.3c0.1-0.5,0.2-0.9,0.3-1.4c-0.3,0-0.5,0-0.8,0
	c0.1,0.5,0.2,1.1,0.3,1.6c-0.4-0.1-0.7-0.2-1.1-0.3C38.3,35.8,38.3,34.8,38.3,33.8z"/>
<path class="st52" d="M18.4,34c0.3,0.1,0.3,0.1,0.5,0.2c0.6,0.2,0.6,0.2,1.1-0.2c0,0.9,0,1.8,0,2.7c-0.8,0-0.8,0-1.6-0.3
	C18.1,34.6,18.1,34.6,18.4,34z"/>
<path class="st53" d="M43.3,25.6c2,0.1,3.6,0.4,5.5,1.1c1.3,0.4,2.5,0.5,3.8,0.5c0.1,0.4,0.1,0.4,0.3,0.8c-1.6,0.1-2.9-0.3-4.5-0.8
	c-1.7-0.6-3.3-1-5.1-1.4C43.3,25.7,43.3,25.6,43.3,25.6z"/>
<path class="st54" d="M18.9,23.4c0.2,0.4,0.4,0.7,0.5,1.1c-1.4,0.1-2.7,0.2-4.1,0.3c-0.2-0.3-0.4-0.5-0.5-0.8
	C16.2,23.6,17.5,23.3,18.9,23.4z"/>
<path class="st55" d="M45.4,26.4c1.4,0.1,2.5,0.3,3.8,0.8c-0.5,0.3-0.5,0.3-1.1,0.5c-0.3-0.1-0.5-0.2-0.8-0.3c0,0.5,0,0.9,0,1.4
	c-0.2,0-0.4,0-0.5,0C45.4,27.4,45.4,27.4,45.4,26.4z"/>
<path class="st56" d="M32,16.3c1.1,1.1,1.1,1.1,1.1,2.3c0,1-0.2,1.7-0.6,2.7c-0.2-0.1-0.4-0.2-0.5-0.3C32,19.4,32,17.8,32,16.3z"/>
<path class="st57" d="M23,38.1c0.5,0,1.1,0,1.6,0c-0.1,1.4-0.2,2.7-0.3,4.1c-0.1,0-0.2,0-0.3,0c-0.1-0.5-0.2-1.1-0.3-1.6
	c-0.1,0.6-0.2,1.3-0.3,1.9c-0.1,0-0.2,0-0.3,0C23.2,41.1,23.1,39.6,23,38.1z"/>
<path class="st58" d="M41.9,38.1c0.6,0,1.3,0,1.9,0c-0.1,0.2-0.2,0.4-0.3,0.5c-0.2,0-0.4,0-0.5,0c0,1.6,0,3.2,0,4.9
	c-0.2,0-0.4,0-0.5,0c0-1.6,0-3.2,0-4.9c-0.2,0-0.4,0-0.5,0C41.9,38.5,41.9,38.3,41.9,38.1z"/>
<path class="st59" d="M21.9,25.6c0.3,0.7,0.3,0.7,0.5,1.4c-0.7-0.1-0.7-0.1-1.4-0.3c0-0.1,0-0.2,0-0.3c-1.5,0-3.1,0-4.6,0
	c0.9-0.6,1.6-0.8,2.6-1c0.3-0.1,0.6-0.2,0.9-0.2C20.9,25,21.2,25,21.9,25.6z"/>
<path class="st60" d="M27.1,14.9c0.3,0.1,0.5,0.2,0.8,0.3c-0.2,0.2-0.4,0.4-0.6,0.6c-1.2,1.2-1.9,2.7-2.4,4.4
	c-0.5-0.8-0.5-0.8-0.5-1.4C24.9,17.2,26,16,27.1,14.9z"/>
<path class="st61" d="M34,33.8c0.5,0,1.1,0,1.6,0c-0.1,0.3-0.2,0.5-0.3,0.8c0,0.4,0,0.7,0,1.1c-0.3-0.1-0.5-0.2-0.8-0.3
	c0.1,0.5,0.1,0.5,0.3,1.1c0.2,0.1,0.4,0.2,0.5,0.3c0.1-0.2,0.2-0.4,0.3-0.5c0,0.3,0,0.5,0,0.8c-0.6,0-1.3,0-1.9,0
	C33.8,36,33.9,34.9,34,33.8z"/>
<path class="st62" d="M36.7,25.8c0.2,0.3,0.4,0.5,0.5,0.8c-1.8,1.4-3.1,2.1-5.5,1.8c-0.3-0.1-0.6-0.1-0.8-0.2c0-0.1,0-0.2,0-0.3
	c0.4,0,0.4,0,0.7-0.1C33.8,27.6,35.1,27.4,36.7,25.8z"/>
<path class="st63" d="M40,18.7c0.2,0,0.4,0,0.5,0c0.4,0.8,0.3,1.6,0.3,2.5c0,0.4,0,0.7,0,1.1c0,0.3,0,0.5,0,0.8c-0.3,0-0.5,0-0.8,0
	C40,21.6,40,20.2,40,18.7z"/>
<path class="st64" d="M28.8,33.8c0.5,0,1.1,0,1.6,0c-0.1,0.3-0.2,0.5-0.3,0.8c-0.3-0.2-0.5-0.4-0.8-0.5c0,0.4,0,0.7,0,1.1
	c0.3-0.1,0.5-0.2,0.8-0.3c-0.1,0.4-0.2,0.7-0.3,1.1c0-0.2,0-0.4,0-0.5c-0.2,0-0.4,0-0.5,0c0,0.5,0,0.9,0,1.4
	c0.4-0.2,0.7-0.4,1.1-0.5c0,0.3,0,0.5,0,0.8c-0.6,0-1.3,0-1.9,0C28.6,36,28.7,34.9,28.8,33.8z"/>
<path class="st65" d="M23,18.7c0.2,0,0.4,0,0.5,0c0,1.4,0,2.7,0,4.1c-0.3,0.1-0.5,0.2-0.8,0.3c0-0.6,0-1.3,0-1.9c0-0.3,0-0.7,0-1.1
	C22.8,19.3,22.8,19.3,23,18.7z"/>
<path class="st66" d="M18.1,33.8c1-0.1,1-0.1,1.9,0c-0.3,0.4-0.3,0.4-0.5,0.8c-0.4-0.2-0.7-0.4-1.1-0.5c-0.1,1.3-0.1,1.3,0.3,2.5
	c0.2,0,0.4,0,0.5,0c0.2-0.2,0.4-0.4,0.5-0.5c-0.1,0.4-0.2,0.7-0.3,1.1c-0.6,0.1-0.6,0.1-1.4,0c-0.6-0.9-0.6-1.3-0.5-2.5
	C17.7,34.3,17.9,34,18.1,33.8z"/>
<path class="st67" d="M36.2,40.6c0.2,0,0.4,0,0.5,0c0.1,1,0.1,1.5-0.5,2.4c-0.6,0.6-0.9,0.8-1.7,0.9c-0.1-0.2-0.2-0.4-0.3-0.5
	c0.3-0.1,0.5-0.2,0.8-0.3C35.6,42.2,35.9,41.5,36.2,40.6z"/>
<path class="st68" d="M24.9,32.9c0.3,0.1,0.5,0.2,0.8,0.3c0,1.3,0,2.5,0,3.8c-0.3,0-0.5,0-0.8,0c-0.1-0.6-0.1-1.3-0.2-1.9
	c0-0.5,0-0.5-0.1-1.1c0-0.3,0-0.6,0-0.9C24.8,33.1,24.8,33,24.9,32.9z"/>
<path class="st69" d="M28.2,27.7c1.6,0.1,3.1,0.3,4.6,0.5c0,0.2,0,0.4,0,0.5c-1.8,0.1-3.1,0-4.6-0.8C28.2,27.9,28.2,27.8,28.2,27.7z
	"/>
<path class="st70" d="M21.9,34c0.1,0,0.2,0,0.3,0c0.1,1,0.2,2,0.3,3c-0.5,0-1.1,0-1.6,0c-0.3-0.3-0.3-0.3-0.3-1c0-0.2,0-0.4,0-0.7
	c0.4,0,0.7,0,1.1,0C21.8,34.9,21.8,34.5,21.9,34z"/>
<path class="st71" d="M36.2,33.8c0.4,0,0.7,0,1.1,0c-0.1,0.3-0.2,0.5-0.3,0.8c0-0.2,0-0.4,0-0.5c-0.2,0-0.4,0-0.5,0
	c0.2,0.3,0.2,0.3,0.4,0.6c0.4,0.8,0.5,1.2,0.4,2.1c-0.5,0.1-0.9,0.2-1.4,0.3c0.1-0.3,0.2-0.5,0.3-0.8c0,0.2,0,0.4,0,0.5
	c0.2,0,0.4,0,0.5,0c0-0.4,0-0.7,0-1.1c-0.2,0-0.4,0-0.5,0C36,35.1,36,34.6,35.9,34C36,33.9,36.1,33.8,36.2,33.8z"/>
<path class="st72" d="M15.6,26.9c-1.8,1-3.2,1.2-5.2,1.1c0.1-0.3,0.2-0.5,0.3-0.8c0.7-0.1,1.3-0.2,2-0.3c0.2,0,0.4-0.1,0.6-0.1
	C14.2,26.7,14.8,26.6,15.6,26.9z"/>
<path class="st73" d="M21.4,26.1c0,0.1,0,0.2,0,0.3c-0.3,0-0.3,0-0.6,0.1c-0.2,0-0.5,0.1-0.7,0.1c-0.4,0.1-0.4,0.1-0.7,0.1
	c-0.7,0.2-1.2,0.4-1.8,0.7c-0.2-0.2-0.4-0.4-0.5-0.5c-0.7-0.2-0.7-0.2-1.4-0.3c0-0.1,0-0.2,0-0.3C17.5,26,19.5,26.1,21.4,26.1z"/>
<path class="st74" d="M47.1,25c1.6-0.1,2.9,0,4.4,0.5c0.1,0.3,0.2,0.5,0.3,0.8c-1.7-0.2-3.1-0.5-4.6-1.1
	C47.1,25.2,47.1,25.1,47.1,25z"/>
<path class="st10" d="M41.6,34c0.3,0,0.5,0,0.8,0c0.3,1.8,0.3,1.8,0,2.7c-0.3-0.1-0.5-0.2-0.8-0.3C41.6,35.7,41.6,34.9,41.6,34z"/>
<path class="st75" d="M9.4,27.7c0.5,0,1,0.1,1.5,0.1c0.4,0,0.4,0,0.8,0.1c0.7,0.1,0.7,0.1,1.6,0.7c-1.6,0.1-1.6,0.1-3.3,0.3
	C9.7,28.5,9.5,28.1,9.4,27.7z"/>
<path class="st76" d="M15.6,26.6c0.6,0,1.3,0,1.9,0c-0.1,0.9-0.3,1.4-0.8,2.2c-0.2,0-0.4,0-0.5,0c0-0.5,0-0.9,0-1.4
	c-0.2-0.1-0.4-0.2-0.5-0.3C15.6,27,15.6,26.8,15.6,26.6z"/>
<path class="st77" d="M33.7,12.4c1.2,0.1,2.2,0.5,3.3,1.1c-0.3,0.4-0.3,0.4-0.5,0.8c-0.2-0.1-0.5-0.3-0.7-0.4
	c-0.8-0.4-1.4-0.6-2.3-0.7C33.5,13,33.6,12.7,33.7,12.4z"/>
<path class="st78" d="M47.1,38.1c0.5,0,0.9,0,1.4,0c0,0.2,0,0.4,0,0.5c-0.3,0.1-0.3,0.1-0.5,0.3c-0.6,1.4-0.7,2.9-0.8,4.4
	c-0.1,0-0.2,0-0.3,0c-0.3-1.7-0.3-3,0.3-4.6C47.1,38.5,47.1,38.3,47.1,38.1z"/>
<path class="st40" d="M32,34c0.5,0.3,0.5,0.3,1.1,0.5c-0.1,0.6-0.2,1.3-0.3,1.9c-0.3,0.1-0.5,0.2-0.8,0.3C32,35.9,32,35,32,34z"/>
<path class="st79" d="M32,13.8c-0.8,0.5-1.3,0.7-2.2,1c-0.4,0.1-0.4,0.1-0.7,0.2c-0.6,0.2-0.6,0.2-1.5,0.2c0-0.2,0-0.4,0-0.5
	C29.1,13.7,30.4,13.7,32,13.8z"/>
<path class="st80" d="M10.4,24.5c0.1,0.1,0.3,0.2,0.4,0.3c1,0.4,1.8,0.5,2.9,0.6c0,0.1,0,0.2,0,0.3c-0.3,0-0.6,0.1-0.9,0.1
	c-0.5,0.1-0.5,0.1-1,0.2c-0.1,0.2-0.2,0.4-0.3,0.5c-0.4-0.2-0.7-0.4-1.1-0.5C10.4,25.4,10.4,24.9,10.4,24.5z"/>
<path class="st81" d="M18.9,23.4c1.1,0.2,2,0.8,3,1.4c-0.2,0.2-0.4,0.4-0.5,0.5c-0.9-0.2-0.9-0.2-1.9-0.5C19.1,24,19.1,24,18.9,23.4
	z"/>
<path class="st82" d="M25.5,34c0.3,0,0.5,0,0.8,0c0,0.9,0,1.8,0,2.7c-0.3,0-0.5,0-0.8,0C25.5,35.9,25.5,35,25.5,34z"/>
<path class="st83" d="M32,22.3c0.5,0.5,0.5,0.5,0.6,1.2c0,0.4,0,0.4-0.1,0.8c0,0.4,0,0.4-0.1,0.8c-0.1,0.7-0.1,0.7-0.7,1.2
	c-0.1-1-0.2-2-0.3-3c0.2-0.1,0.4-0.2,0.5-0.3C32,22.8,32,22.5,32,22.3z"/>
<path class="st84" d="M27.1,13.2c0.2,0.3,0.4,0.5,0.5,0.8c-1.2,0.8-1.2,0.8-2.5,1.6c-0.2-0.2-0.4-0.4-0.5-0.5
	C25.5,14.5,26.3,13.9,27.1,13.2z"/>
<path class="st85" d="M30.4,13.2c0.1,0.2,0.2,0.4,0.3,0.5c-1.1,0.4-2.2,0.7-3.3,1.1c0.3-0.9,0.6-1.1,1.3-1.6
	C29.6,13,29.6,13,30.4,13.2z"/>
<path class="st86" d="M49.8,33.8c0.4,0,0.7,0,1.1,0c-0.1,0.3-0.2,0.5-0.3,0.8c0,0.7,0.1,1.3,0.3,1.9c-0.1-0.2-0.2-0.4-0.3-0.5
	c-0.6-0.3-0.6-0.3-1.1-0.5c0-0.5,0-0.9,0-1.4C49.6,33.9,49.7,33.8,49.8,33.8z"/>
<path class="st87" d="M45.7,23.6c0.1,0.2,0.2,0.4,0.3,0.5c0.9-0.2,1.8-0.4,2.7-0.5c0.1,0.2,0.2,0.4,0.3,0.5
	c-0.9,0.6-1.2,0.6-2.2,0.4c-0.4,0-0.4,0-0.7-0.1c-0.2,0-0.4-0.1-0.6-0.1C45.5,24.2,45.6,23.9,45.7,23.6z"/>
<path class="st88" d="M45.3,23.3c0.9,0,1.4,0.1,2.1,0.6c-1.1,0.3-1.9,0.5-3,0.5c-0.1-0.3-0.2-0.5-0.3-0.8
	C44.4,23.4,44.4,23.4,45.3,23.3z"/>
<path class="st89" d="M44.6,38.1c0.5,0,1.1,0,1.6,0c0,0.5,0,1.1,0,1.6c-0.3,0.1-0.5,0.2-0.8,0.3C44.6,38.7,44.6,38.7,44.6,38.1z"/>
<path class="st90" d="M50.9,38.1c0,0.5,0,1.1,0,1.6c-0.1-0.2-0.2-0.4-0.4-0.5c-0.1-0.2-0.3-0.4-0.4-0.5c-0.2,0-0.4,0-0.5,0
	c-0.3,0.5-0.5,1.1-0.8,1.6c-0.1,0-0.2,0-0.3,0c-0.1-0.7-0.1-1.2,0.3-1.9C49.5,38,50.1,38.1,50.9,38.1z"/>
<path class="st91" d="M47.6,34c0.1,0,0.2,0,0.3,0c0,0.8,0,1.6,0,2.5c-0.8,0.3-0.8,0.3-1.6,0.3c0-0.5,0-0.9,0-1.4
	c0.7,0.3,0.7,0.3,1.4,0.5C47.6,35.3,47.6,34.7,47.6,34z"/>
<path class="st92" d="M43.9,26c0.5,0,0.5,0,1.1,0c0.4,0,0.4,0,0.8,0c-0.2,0.4-0.4,0.7-0.5,1.1c-0.1-0.1-0.3-0.2-0.4-0.3
	c-1.2-0.5-2.5-0.4-3.7,0C41.8,25.9,42.6,26,43.9,26z"/>
<path class="st93" d="M17.3,23.4c0.5,0,1.1,0,1.6,0c0.2,0.4,0.4,0.7,0.5,1.1c-0.7,0-1.4,0-2.2,0C17.3,24.1,17.3,23.7,17.3,23.4z"/>
<path class="st94" d="M23.6,40.3c0.3,0.1,0.3,0.1,0.5,0.3c0.2,0.6,0.2,0.6,0.3,1.2c0,0.2,0.1,0.5,0.1,0.7c0,0.2,0.1,0.3,0.1,0.5
	c-0.3,0.2-0.5,0.4-0.8,0.5c-0.3-0.7-0.3-1.2-0.3-1.9c0-0.2,0-0.5,0-0.8C23.6,40.7,23.6,40.5,23.6,40.3z"/>
<path class="st95" d="M52.3,22.3c0.1,0.2,0.1,0.3,0.2,0.5c0.3,0.6,0.3,0.6,1.1,0.8c0.2,0,0.4,0,0.6,0.1c0.1-0.3,0.2-0.5,0.3-0.8
	c0,0.5,0,1.1,0,1.6c-0.8-0.1-1.3-0.2-1.9-0.8C52.3,23.1,52.3,23.1,52.3,22.3z"/>
<path class="st96" d="M48.7,39.2c0.7,0.5,0.7,0.5,1.4,1.1c0,0.3,0,0.5,0,0.8c-0.3,0.1-0.5,0.2-0.8,0.3c-0.5-0.5-0.5-0.5-0.6-1.4
	C48.7,39.7,48.7,39.5,48.7,39.2z"/>
<path class="st97" d="M34.5,20.9c0.4,0,0.7,0,1.1,0c0.3,1.6,0.3,1.6,0,2.2c-0.2,0-0.4,0-0.5,0C34.9,22.4,34.7,21.6,34.5,20.9z"/>
<path class="st98" d="M25.5,38.1c0.5,0,1.1,0,1.6,0c0,0.2,0,0.4,0,0.5c-0.2,0-0.4,0-0.5,0c0,1.1,0,2.2,0,3.3c-0.1,0-0.2,0-0.3,0
	c0-1.1,0-2.2,0-3.3c-0.3,0-0.5,0-0.8,0C25.5,38.5,25.5,38.3,25.5,38.1z"/>
<path class="st99" d="M28.8,38.7c0.3,0.1,0.5,0.2,0.8,0.3c0,0.6,0,1.3,0,1.9C29.3,41,29,41,28.8,41.1C28.8,40.3,28.8,39.5,28.8,38.7
	z"/>
<path class="st100" d="M46.3,38.1c0.3,0,0.5,0,0.8,0c0.3,0.8,0.3,1.1,0,1.8c-0.1,0.2-0.2,0.4-0.3,0.6c-0.5-0.7-0.7-1.1-0.8-1.9
	C46.1,38.5,46.2,38.3,46.3,38.1z"/>
<path class="st101" d="M12.9,38.1c1,0,2,0,3,0c0,0.5,0,0.9,0,1.4c-0.2-0.1-0.4-0.2-0.5-0.3c0-0.2,0-0.4,0-0.5c-0.8,0-1.6,0-2.5,0
	C12.9,38.5,12.9,38.3,12.9,38.1z"/>
<path class="st102" d="M38.3,33.5c0.8,0,1.6,0,2.5,0c-0.1,0.2-0.2,0.4-0.3,0.5c-0.2,0-0.4,0-0.5,0c0,0.4,0,0.7,0,1.1
	c-0.3,0-0.5,0-0.8,0c0-0.5,0-0.9,0-1.4C38.9,33.7,38.6,33.6,38.3,33.5z"/>
<path class="st103" d="M21.8,33.5c0.3,0,0.3,0,0.7,0c-0.1,0.2-0.2,0.4-0.3,0.5c-0.2,0-0.4,0-0.5,0c0,0.4,0,0.7,0,1.1
	c-0.4,0-0.7,0-1.1,0C20.9,33.5,20.9,33.5,21.8,33.5z"/>
<path class="st104" d="M36.7,25.8c0.2,0.3,0.4,0.5,0.5,0.8c-0.3,0.2-0.6,0.5-0.9,0.7c-0.2,0.1-0.3,0.3-0.5,0.4
	c-0.5,0.3-0.5,0.3-1,0.3C35.2,26.9,35.8,26.6,36.7,25.8z"/>
<path class="st105" d="M28.2,20.6c0.2,0,0.4,0,0.5,0c0,0.2,0,0.4,0,0.5c0.3,0.1,0.5,0.2,0.8,0.3c-0.4,0.1-0.7,0.2-1.1,0.3
	c-0.1,0.5-0.2,0.9-0.3,1.4c-0.2-0.1-0.4-0.2-0.5-0.3c0-0.8,0-0.8,0-1.6C27.9,21,28,20.8,28.2,20.6z"/>
<path class="st106" d="M37,38.1c1,0,2,0,3,0c0,0.5,0,0.9,0,1.4c-0.2-0.2-0.4-0.4-0.5-0.5c-0.6-0.1-0.6-0.1-1.3-0.2
	c-0.3,0-0.3,0-0.7-0.1c-0.2,0-0.3,0-0.5,0C37,38.5,37,38.3,37,38.1z"/>
<path class="st107" d="M19.5,38.1c1,0,2,0,3,0c0,0.5,0,0.9,0,1.4c-0.2-0.2-0.4-0.4-0.5-0.5c-0.6-0.1-0.6-0.1-1.3-0.2
	c-0.3,0-0.3,0-0.7-0.1c-0.2,0-0.3,0-0.5,0C19.5,38.5,19.5,38.3,19.5,38.1z"/>
<path class="st108" d="M29.6,12.4c0,0.3,0,0.5,0,0.8c-0.8,0.3-1.3,0.5-2.2,0.5c0.3-0.8,0.3-0.8,0.8-1.1
	C28.8,12.4,28.8,12.4,29.6,12.4z"/>
<path class="st109" d="M24.7,22c0.1,0,0.2,0,0.3,0c0.3,1,0.5,2,0.8,3c-0.3,0-0.5,0-0.8,0c-0.5-0.8-0.5-1.1-0.4-2.1
	C24.6,22.6,24.6,22.3,24.7,22z"/>
<path class="st110" d="M27.1,14.9c0.3,0.1,0.5,0.2,0.8,0.3c-1.2,1.3-1.2,1.3-2.5,1.6C26,16.2,26.6,15.5,27.1,14.9z"/>
<path class="st111" d="M52.8,27.7c0.5,0,0.9,0,1.4,0c-0.1,0.3-0.2,0.5-0.3,0.8c-0.6,0.1-1.3,0.2-1.9,0.3c0.2-0.1,0.4-0.2,0.5-0.3
	C52.6,28.3,52.7,28,52.8,27.7z"/>
<path class="st112" d="M48.5,42.2c0.6,0.4,1.1,0.9,1.6,1.4c0,0.2,0,0.4,0,0.5c-1.3-0.2-1.3-0.2-1.6-0.5
	C48.4,43.1,48.4,42.7,48.5,42.2z"/>
<path class="st113" d="M48.5,27.5c0.5,0,0.9,0,1.4,0c0.3,0.3,0.3,0.3,0.3,1c0,0.2,0,0.4,0,0.7c-0.6-0.4-1.1-0.9-1.6-1.4
	C48.5,27.6,48.5,27.6,48.5,27.5z"/>
<path class="st114" d="M14,41.7c0.1,0,0.2,0,0.3,0c0.2,0.7,0.4,1.4,0.5,2.2c-0.6,0-1.3,0-1.9,0c0.1-0.1,0.3-0.2,0.4-0.3
	C13.8,42.9,13.9,42.5,14,41.7z"/>
<path class="st115" d="M20.8,25c0.8,0.3,1.1,0.5,1.4,1.3c0.1,0.2,0.1,0.4,0.2,0.6c-0.6-0.1-0.6-0.1-1.4-0.3
	c-0.4-0.7-0.4-0.7-0.5-1.4C20.7,25.2,20.7,25.1,20.8,25z"/>
<path class="st116" d="M34.5,35.4c0.5,0.2,1.1,0.4,1.6,0.5c-0.3,0.3-0.5,0.5-0.8,0.8c-0.3-0.1-0.5-0.2-0.8-0.3
	C34.5,36.1,34.5,35.8,34.5,35.4z"/>
<path class="st117" d="M40.8,25.6c-0.4,0.9-0.5,1.1-1.4,1.6c0-0.5,0-0.9,0-1.4C40.3,25.6,40.3,25.6,40.8,25.6z"/>
</svg>
