<?xml version="1.0" encoding="utf-8"?>
<!-- Generator: Adobe Illustrator 24.1.2, SVG Export Plug-In . SVG Version: 6.00 Build 0)  -->
<svg version="1.1" id="Calque_1" xmlns="http://www.w3.org/2000/svg" xmlns:xlink="http://www.w3.org/1999/xlink" x="0px" y="0px"
	 viewBox="0 0 204 60" style="enable-background:new 0 0 204 60;" xml:space="preserve">
<style type="text/css">
	.st0{font-family:'Rockwell-ExtraBold';}
	.st1{font-size:48px;}
	.st2{font-family:'ArialRoundedMTBold';}
	.st3{font-size:10px;}
	.st4{fill:#150D00;}
</style>
<text transform="matrix(1 0 0 1 74.75 40.125)" class="st0 st1">VAS</text>
<text transform="matrix(1 0 0 1 63 52)" class="st2 st3">VACANCE AU SENEGAL</text>
<g transform="translate(0.000000,619.000000) scale(0.100000,-0.100000)">
	<path class="st4" d="M318.8,6176.5c-18.8-1.5-40.1-5.4-58.1-10.6c-3.3-0.9-5-0.8-12.7,1.4c-8.6,2.4-9.3,2.5-22.5,1.6
		c-22.3-1.3-36.7-4.7-54.4-12.8c-3.8-1.7-8.7-4.3-10.8-5.8c-2.3-1.5-6.1-3.7-8.8-4.8c-10.3-4.5-13.7-10.4-14.6-25.1
		c-0.6-9.2-1-11.4-4.7-20.3c-3.6-8.8-4.1-10.9-4.5-19.2l-0.4-9.3l-7.7-8.9c-4.1-4.9-7.7-9.5-7.9-10.2c-0.2-0.7-3.3-2.8-7.1-4.8
		c-3.8-1.9-9.7-5.4-13.2-7.7c-6.6-4.4-14.8-12.6-14.8-14.8c0-2.1,2.7-4.2,5.3-4.2c2.3,0,2.3-0.1-2.2-8.8
		c-16.1-31.2-25.9-64.3-29.9-100.5c-5.9-53.7,6.6-115,33.3-163c27.3-49.1,63.2-85.2,113.6-114.3c16.4-9.4,45.6-22.5,47.6-21.3
		c0.5,0.3,1,0,1.3-0.6c0.2-0.7,0.7-0.9,1-0.7c0.4,0.4,0,2.1-0.8,3.8c-0.8,1.8-2.8,8.5-4.4,15c-1.6,6.5-3.3,12.3-3.8,12.9
		c-0.8,0.9-5,19.4-22.5,99.7c-3.7,17-7,31.6-7.3,32.3c-0.4,1,0,1.3,1.2,1c1.1-0.2,2-1.5,2.5-3.6c4.2-19.8,13.8-58.7,15.9-65.3
		c3.9-12,10.6-24.3,13.1-24.3c0.5,0,0.9,1.4,1.1,3l0.3,3.1l2.5-2.7c4-4.2,9.9-15.3,19.2-35.7c4.8-10.5,10.3-22.2,12.2-25.8
		c1.9-3.8,3.2-6.9,3-6.9c-0.3,0-1.6,1-3,2.4c-3.4,3.1-4.1,3-4.1-0.9c0-3.8-2.2-5.4-4.2-3.2c-0.8,0.8-4.7,9.3-9,19.1
		c-8.9,20.7-17,38.4-18.1,39.7c-0.5,0.6-0.4-0.3,0.1-1.7c1.3-3.5,1.3-4.7-0.2-4.1c-0.7,0.3,1.1-5.5,4.1-12.9
		c6.6-16.5,9.1-24.9,7.6-26.3c-1.4-1.4-2.4-0.2-4.7,5.5c-3,7.5-2.3,2.8,1.3-8.4c1.8-5.7,3.4-11.9,3.5-13.9c0.3-3.6,0.4-3.7,6.4-5.5
		c5.4-1.6,17.4-4.7,30.2-7.6c5.3-1.2,25.6-4,26.1-3.5c0.6,0.6-2.5,12.9-4.1,16.6c-0.8,1.9-1.4,4.7-1.3,6.3c0,2-1.8,6-5.6,12.4
		c-3.1,5.3-5.7,10.4-5.7,11.4c0,3.4-32.8,56.6-38.4,62.2c-2.7,2.8-5,5.7-5,6.2c0,1.8,3.2,4.2,5.5,4.2c4.8,0,8.1-5.3,30.6-50
		c17.5-34.7,23-46.4,26.1-56.1c2.3-6.8,4.4-12.8,5-13.4c1.2-1.5,16.3-1.6,32.3-0.3c66.8,5.7,129.6,33.1,179.8,78.5
		c4.6,4.1,8,7.9,7.6,8.5c-0.3,0.5-0.1,0.7,0.4,0.4c1.9-1.2,20.6,20.7,36.4,42.7c8.9,12.2,25.2,41.9,23.8,43.2
		c-0.3,0.3-0.5-0.1-0.5-0.8c0-0.7-0.2-1-0.5-0.8c-0.9,0.9,4.2,14.4,6,15.8c1,0.8,2.5,3.3,3.4,5.6l1.4,4.1l-2-1.8l-2-1.8l0.6,3.3
		c1.2,5.7,1.5,6.2,3.9,7.5c2.9,1.6,3.9,4.4,2.1,6.4c-1.4,1.6-1.2,4,0.4,4c0.5,0,0.8-0.9,0.9-2.1c0.1-4.5,3.6,7.7,5.9,21.4
		c0.3,1.6,0.8,4,1,5.4c0.5,1.9,0.2,2.5-1,2.8c-1.5,0.3-1.5,0.4-0.1,1.9c2.5,2.5,3.6,6.3,4.1,14.9c0.3,4.4,0.8,14,1.3,21.2
		c2.1,30.4-3,67.6-13.3,98.1c-2.9,8.4-8.4,23-10.5,27.8c-3.3,7.5-14.5,29.5-18.1,35.4l-3.4,5.7l11.5,5.5
		c14.5,6.9,19.6,11.5,19.6,17.8c0,2.9-3.2,8-5.5,8.7c-1.4,0.5-2.2,2.7-4,11.2c-1.1,5.8-2.5,13.1-2.8,16.2c-0.8,7.4-2,9.3-6.6,11.5
		c-2.1,0.9-3.8,2-3.8,2.3c0,1.1,9.6,8.6,17.2,13.3c16.8,10.4,20.4,14.1,19.2,20.1c-0.8,4.4-3.5,6.4-7.8,5.9c-2-0.3-18.6-7.2-37-15.3
		c-18.4-8.2-34.3-14.9-35.4-14.9c-9.9,0-14.8-3-20.9-13.1c-1.8-3.1-3.7-5.6-4.1-5.6c-0.5,0-3.7,2.4-7.3,5.3
		c-22.8,18.8-58.5,38.2-89,48.7C391,6173.3,350,6179,318.8,6176.5z M372.5,6161.8c45.9-7.1,87.1-24,125.6-51.6
		c5.8-4.1,12.3-9.1,14.1-10.8l3.5-3.1l-4.6-6.7c-8.8-12.7-13.6-18.4-24.9-29.7c-10.3-10.2-12.8-12.2-26-20c-9-5.3-15-8.3-15.5-7.7
		c-1.3,1.2-5.8,1-12.1-0.5c-5.5-1.2-6.2-1.7-14-7.6c-3.7-2.8-18.5-11.8-32.2-19.7c-2.5-1.4-5.2-3.8-5.9-5.3
		c-1.5-2.9-2.2-3.2-11.5-4.6c-7.9-1.2-10.5-2.7-16.9-10.2c-7.9-9.1-9.6-10.4-16.2-12.5c-3.2-1.1-8.5-4-11.6-6.3
		c-3.7-2.7-8-4.9-11.8-5.9c-6.3-1.7-7.3-1.4-4.1,1.4c1.4,1.2,1.9,2.9,1.9,6.3c0,3.3,0.6,5.5,1.9,7.1c2.3,2.9,2.5,6.6,0.4,9.5
		c-2.5,3.5-0.9,7.3,3.8,9.5c2.2,1.1,4.7,2,5.7,2c2.5,0,6.9,2.8,8.2,5.4c2.1,3.8,1.4,7.5-2.3,12.8l-3.5,4.9l4.5,0.5
		c2.5,0.3,5.5,1.1,6.8,1.9c1.9,1.1,6.6,1.4,25.6,1.1c22.7-0.2,23.3-0.2,26.4,1.9c10.7,7.2,11.7,32.5,1.6,42
		c-4.1,3.9-6.3,4.1-22.6,2.5c-15-1.3-30.9-1.6-30.9-0.5c0,1.1,13.7,7.4,17.6,8c4.8,0.8,7.4,3.4,6.5,6.6c-0.8,3.5-4.2,5.3-13.5,7.2
		c-17.7,3.6-25.5,5.6-30.2,7.8c-4.3,2-5.8,3.4-11.1,11.4c-4.5,6.7-6.1,9.9-6.1,12.3c0,1.7-1.3,5.7-2.9,8.7c-1.5,3-4,10.3-5.3,15.9
		c-1.3,5.8-2.8,10.9-3.4,11.6c-0.6,0.8-0.6,1.5-0.1,2c0.9,0.8,12.2,2.6,24,3.9C323.3,6164.5,360.9,6163.6,372.5,6161.8z
		 M218.8,6161.8c-3.9-0.8-7.9-1.2-9-1c-2.2,0.4,9,2.3,13.2,2.4C224.7,6163.1,222.7,6162.5,218.8,6161.8z M253.1,6159.4
		c5.2-1.6,11.2-3.5,13.3-4.2c2.2-0.8,5.8-1.3,8-1.4c3.6-0.1,3.9-0.2,1.9-0.8l-2.4-0.8l2.4-0.1c1.3,0,3,0.4,3.8,0.8
		c1.2,0.8,1.2,1,0,2c-1.2,0.8-1.1,0.9,0.4,0.7c1-0.2,1.9-1.1,2.1-2.2c0.1-1,0.8-4.2,1.7-7.1c0.8-2.8,1.5-6.1,1.5-7.4
		c0-1.1,1.5-5.1,3.4-8.6c2.2-4.1,3.5-8.2,3.7-10.9c0.3-3.4,1-5.2,3.1-7.4c1.6-1.6,3.7-4.7,4.8-6.9c1.1-2.3,2.4-4.1,2.7-4.1
		c0.4,0,1.1-1.2,1.7-2.6c0.8-2,2.6-3.5,7.3-5.6c6.3-3,32.9-9.7,38.5-9.7c1.7,0,2.8-0.2,2.6-0.5c-0.3-0.2-4.7-1.8-9.9-3.4
		c-8.8-2.8-10.6-3-29.6-3.7c-11.1-0.5-21.2-1-22.3-1.4c-1.8-0.6-2.1-0.3-2,2.1c0.1,1.4,0.6,2.9,0.9,3.2c1.8,1.3-2.1,1.5-5.5,0.3
		c-4.5-1.5-9.1-2.5-13.7-2.6c-2.5-0.2-3.3-0.7-3.2-1.8c0.2-4.9,0.5-5.4,2.5-5.5c2,0,2-0.1-0.3-0.9c-1.5-0.7-9.9-0.8-23.6-0.4
		c-17.4,0.6-22.7,0.4-30-0.8c-11.8-2.1-12.8-2-11.3,0.4c0.7,0.9,2.3,2,3.6,2.2c1.3,0.2-0.2,0.5-3.3,0.7l-5.7,0.3l6.1,0.7
		c3.9,0.4,7.4,1.4,9.4,2.7c1.8,1.2,2.5,1.9,1.4,1.5c-1-0.4-6-0.8-11-1.1c-10.2-0.6-9.9-0.4-9.2-7.7c0.2-2-0.1-2.2-3.5-1.6
		c-4.1,0.8-19.2-1.2-32.2-4.1c-4.8-1-9.1-1.8-9.2-1.5c-0.8,0.8,17.7,6.1,26.8,7.7c4.8,0.8,8.6,2,8.5,2.5c-0.1,0.6,1.3,1.4,3.1,2
		c1.8,0.5,4,1.7,5,2.7c0.9,0.9,2.4,1.5,3.1,1.2c0.8-0.3,1.3-0.1,1.3,0.5c0,0.7,1.3,0.8,3.8,0.4c4.7-0.8,17.3,1.1,16.4,2.5
		c-0.5,0.7,0.2,0.8,1.9,0.4c1.4-0.4,2.5-0.2,2.5,0.4c0,0.6,1,0.8,2.6,0.4c2-0.4,2.2-0.3,1.1,0.5s-0.5,0.8,2.4,0.6
		c2.5-0.4,3.1-0.2,2,0.3c-2.2,0.9,12.3,4.3,26.4,6.2c8.7,1.1,9.1,1.2,6,2.1l-3.3,0.9l5.8,1.2c3.2,0.8,7.1,0.9,8.5,0.7
		c1.4-0.4,4-0.8,5.5-1.1c2.8-0.4,2.8-0.4,0.5,0.7c-2.4,1.1-2.3,1.1,1.4,1.9c2.1,0.4,6.8,0.8,10.4,0.8c4.2,0,6.1,0.4,5.3,0.8
		c-1,0.7-0.9,0.9,0.5,1.3c0.9,0.3-0.4,0.3-3.1,0c-7.4-0.8-23.5,1.5-25.4,3.7c-1.9,2.1-5,2.2-10.8,0.4c-2.5-0.8-6.9-1.6-9.9-2
		l-5.6-0.8l1.8,2.1c1,1,2.4,2,3.1,2c0.7,0,1.2,0.7,1.2,1.4c0,1-0.5,1.1-2.3,0.5c-1.9-0.7-2.4-0.5-2.7,1c-0.4,1.2-1,1.6-2.3,1.3
		c-0.9-0.3-0.7,0,0.7,0.6c5.4,2.5,10,4.5,11.8,5.2c1.6,0.7,1.3,0.8-1.3,1.1c-2.1,0.2-4,1.3-5.5,3c-2.5,2.9-7.4,4.5-9.1,2.9
		c-0.7-0.7-0.7-1.7,0.1-3.4c0.7-1.4,0.8-2.3,0.2-1.9c-0.5,0.3-0.9,0.1-0.9-0.6c0-0.6-2,0.7-4.4,2.9c-7.6,6.7-8.2,7.2-12.3,9.9
		c-2.3,1.4-5.5,2.7-7.1,2.9l-3.1,0.4l3.3-2.7c1.8-1.5,3.6-2.5,4-2.4c0.5,0.3,0.8,0.1,0.8-0.5c0-0.5,1.5-1.4,3.3-2.1
		c2.1-0.8,2.8-1.5,2.2-1.9c-0.8-0.6-0.8-1.1,0.4-2.5c0.8-0.9,2-2.7,2.6-4.1c1.1-2.3,1.1-2.3-0.6-0.8c-0.9,0.8-3,2.3-4.6,3.1
		c-2.3,1.3-2.5,1.5-0.7,1.1c1.4-0.3,2.1,0,1.8,0.7c-0.2,0.7-2.5,1.3-5,1.6c-7.3,0.8-20.2,10.4-20.2,15c0,1.4-0.8,5.9-1.9,10
		c-2.3,8.7-2.3,9.9-0.7,9.9c0.7,0,2.1,0.7,3.1,1.4c1.7,1.3,1.6,1.3-0.8,0.5c-1.5-0.5-3.4-0.9-4.2-0.8c-2.4,0.1,4.5,2.5,7.8,2.7
		l2.8,0.2l-2.8,0.8c-4.4,1.1,0,1,7.1-0.1c3.4-0.5,7.4-1.8,9-2.7c3.4-2.3,2.8-2.4-1.7-0.5c-4.1,1.7-4.4,1.7-4.4,0.5
		c0-0.5,0.8-0.9,1.8-0.9c1.9,0,5.3-2.6,4.4-3.5c-0.2-0.2-1.6,0.2-3.1,0.9c-1.4,0.8-4.1,1.7-5.9,2l-3.3,0.7l5.2-4.8
		c2.8-2.6,8.2-6.3,11.8-8.1c5.7-2.7,7.8-3.2,14.6-3.6c6.7-0.3,9-0.8,13.9-3.3c3.2-1.6,7.3-2.9,9-2.9c5.4,0,10.2-1.8,10.2-3.8
		c0-2.6-2.5-4.6-6.9-5.4c-3.4-0.5-3.6-0.7-1.7-1.4c1.8-0.6,2-1,1.1-2.1c-0.8-0.9-0.8-1.5-0.1-2c0.6-0.4,0.8-0.1,0.8,0.6
		c-0.2,0.6,0.2,1.2,0.8,1.5c0.7,0.2,1.1-0.7,1.1-2c0-1.4-0.5-2.2-1.2-1.9c-0.6,0.3-1.7-0.3-2.4-1.2c-1.1-1.4-1.1-1.5,0-0.5
		c2,1.8,3,1.3,1.9-0.8c-0.6-1-0.7-1.8-0.1-1.7c0.5,0.2,0.8-0.1,0.8-0.7c0-0.5-0.4-0.8-0.9-0.7c-0.5,0.1-0.7-0.2-0.3-0.8
		c0.5-0.8,1-0.8,1.9,0c0.8,0.7,1.3,0.7,1.6,0.1c0.2-0.7,0.8-0.7,1.7-0.1c1.2,0.8,1.1,0.9-0.3,0.9c-1.3,0-1.5,0.4-0.7,1.8
		c0.7,1.3,0.7,2.1-0.1,2.5c-0.6,0.4-0.8,1.1-0.6,1.8c0.8,1.9-1.1,5.5-2.4,4.7c-0.7-0.4-0.8-0.3-0.5,0.1c0.9,1.1,3.7,1.5,3,0.5
		c-0.3-0.5,0.4-1.4,1.4-2.2c1.7-1.1,1.7-1.4,0.5-1.9c-0.8-0.4-1.4-1-1.4-1.6c0-0.6,0.5-0.8,1.2-0.3c2.3,1.4,3.2,0.9,3.1-1.5
		c-0.1-1.3,0.4-2.5,1-2.5c0.6,0,1.3-0.3,1.7-0.7c0.8-0.8-1.5-0.5-2.8,0.4c-0.6,0.4-1-0.3-1.1-1.4c0-1.1,0.1-1.6,0.3-1
		c0.3,0.6,2.3,0.8,4.4,0.8c4.9-0.3,7.4,0.8,5.6,2.6c-0.8,0.8-1.1,0.8-1.2-0.2c0-0.8-0.5-0.2-0.8,1.3c-1,3.4-0.7,4.1,2.8,4.8
		c1.5,0.4,3,0.9,3.3,1.4c0.3,0.5-2.1,2.8-5.2,5.2c-6.8,5.3-8.9,8.1-8.2,11.4c0.6,3.3-0.8,4.6-14.1,12.5c-14.8,8.9-14.7,8.8-10.2,8.1
		c2.8-0.5,3.4-0.4,2.4,0.4c-0.8,0.6-3.4,1.3-5.8,1.6c-2.5,0.4-4.5,0.9-4.5,1.4C240.5,6162.9,243.1,6162.4,253.1,6159.4z
		 M239.3,6160.8c-0.3-0.3-1.1-0.4-1.8-0.1c-0.8,0.3-0.5,0.6,0.6,0.6C239.1,6161.4,239.7,6161.1,239.3,6160.8z M246.6,6155
		c-0.3-0.3-1,0-1.7,0.7c-0.8,0.9-0.8,1,0.6,0.5C246.4,6155.8,246.9,6155.2,246.6,6155z M181.9,6151.6c-0.2-0.2-2.7-0.6-5.6-0.8
		c-3.4-0.4-4.5-0.3-3.3,0.3C174.9,6151.8,182.8,6152.3,181.9,6151.6z M621,6150.9c1-1.6-0.1-2-1.4-0.4c-0.8,0.8-0.8,1.4-0.2,1.4
		C620,6151.9,620.7,6151.5,621,6150.9z M171.2,6146.3c-1.5-0.4-3.9-0.8-5.2-0.8c-2.2-0.1-2.2,0-0.5,0.8c1,0.5,3.4,0.8,5.2,0.8h3.3
		L171.2,6146.3z M560.6,6117.9c14.2-2.8,31.9-8.2,33.3-10c0.6-0.8,1.1-3.1,1.1-4.9c0-1.9,1-7.8,2.4-13.3c2.7-11.8,2.9-14.4,0.8-16.6
		c-1.6-1.5-1.7-1.5-2.4,1.1c-0.8,3.8-4.3,21.8-5,25.9c-0.9,6.3-0.5,6.1-37.6,15.9C534.4,6121.1,539.1,6122.2,560.6,6117.9z
		 M268.1,6113.7c-0.4-0.9-0.8-1.1-1.4-0.6c-1.1,1.1-0.1,3.3,1.1,2.5C268.3,6115.4,268.4,6114.4,268.1,6113.7z M556.4,6102.2
		c7.5-3.2,16.4-7.2,19.8-8.9l6.1-3.1l3.1-9.4c1.7-5.2,3.3-11,3.6-12.9c0.7-3.7-0.1-8.3-1.3-8.3c-1.6,0-7,12.8-7.3,17.3
		c-0.2,2.6-0.9,5.3-1.9,6.3c-1.8,2-11.7,6.3-21.7,9.4c-7.1,2.3-17.5,7.5-20.9,10.7c-1.2,1-2.2,2.7-2.2,3.8
		C533.8,6110.2,541.3,6108.5,556.4,6102.2z M545.6,6092.2c2.7-2.9,9.1-7.4,15.7-11.2c6-3.5,11.6-7,12.3-7.8
		c1.1-1.4,1.6-3.6,3.2-16.4l0.7-5.2l-2,2.9c-1.1,1.6-2.4,4.9-2.8,7.4c-0.5,2.5-0.9,4.5-1.1,4.7s-6.5,3.3-14.1,6.9
		c-11.3,5.4-14.5,7.4-18.6,11.7c-5.4,5.6-8,10.9-5.9,12.2C535.7,6099,540.8,6097,545.6,6092.2z M258.7,6092.8c-0.7-0.2-2-0.2-2.8,0
		c-0.9,0.3-0.4,0.5,1.1,0.5C258.6,6093.3,259.3,6093.1,258.7,6092.8z M250.6,6092c-0.3-0.3-1.1-0.4-1.8-0.1
		c-0.8,0.3-0.5,0.6,0.6,0.6C250.4,6092.5,251,6092.3,250.6,6092z M283.4,6072.7c0.3-0.5-0.1-0.9-0.9-0.9s-1.2,0.5-0.9,0.9
		c0.3,0.6,0.8,0.9,0.9,0.9S283.1,6073.3,283.4,6072.7z M604.9,6070.3c2.3-2.2,1.9-2.4-2-0.7c-4.6,1.9-4.9,2.2-1.9,2.2
		C602.3,6071.8,604.1,6071.1,604.9,6070.3z M334.7,6062.8c6.1-5.2,8.1-21.5,3.9-31.4c-2.4-5.6-4.8-7.7-8.6-7.7
		c-6.7,0-10.7,8.1-10.7,21.2c0,7.4,0.3,9.2,2.5,13.5l2.5,4.9l-2.5,0.2c-1.6,0-1,0.3,1.7,0.8C330.8,6065.4,331.8,6065.3,334.7,6062.8
		z M386,6062.5c2.5-2.1,5.4-8.5,5.3-11.5c0-1.4-0.6-0.6-1.3,2.4c-1.3,5-4.9,9-8.1,9c-8.7,0-11.6-22.9-4-31.3c3.6-4,10.7,0,12.2,6.6
		c0.8,4.1,1.1,4.6,1.2,2.1c0.1-3.1-2.8-9.4-5.4-11.7c-3.1-2.7-6.8-2.3-9.7,1.3c-3.2,3.8-4.6,9.3-4.6,17.6c0.1,5.7,0.8,8.7,3.3,14.7
		c0.6,1.4,0,1.6-4.3,1.8c-5.1,0.2-5,0.2,1.5,0.8C380.4,6065.1,383.7,6064.7,386,6062.5z M392,6044.3c-0.3-0.8-0.6-0.5-0.6,0.6
		c-0.1,1,0.2,1.6,0.5,1.2C392.2,6045.8,392.3,6044.9,392,6044.3z M572.6,6036.2c2.2-2.5,12.1-20.2,17-30.5
		c19-39.9,29.7-84.7,30.3-127.5l0.2-13l-3-3c-6-6-5.9,0.5,0,7.4l1.8,2.1l-3.6,0.6c-2.1,0.3-4.6,0.8-5.8,1c-2.5,0.5-3.3-0.7-3.4-4.7
		c-0.1-2.7-0.3-3-2.5-2.6c-1.3,0.3-2.7,1-3.1,1.6c-0.5,0.7-2.9,1.7-5.5,2.4c-4.2,1-5,0.9-6.6-0.5c-2.4-2.2-7.4-2.4-10.8-0.5
		c-3.2,1.7-9.9,2.5-9.9,1.1c0-1.6-4.5-1.9-5.2-0.4c-0.7,1.8-4.4,0.8-9.1-2.3c-3.6-2.3-7-3.1-5.9-1.3c0.4,0.7-0.3,0.8-2.1,0.4
		c-1.4-0.4-3-1.2-3.4-2c-0.5-0.7-1.1-1-1.6-0.8s-1.7,0-2.7-0.7c-1.5-0.9-2.2-0.9-3.1,0c-2.2,2.2-3.6,1.2-3.6-2.2
		c0-2.6-0.4-3.3-1.8-3.3c-1,0-2.1,0.6-2.3,1.2c-0.4,0.8-0.8,0.8-1.5-0.3c-0.6-0.8-2.2-1.3-4.1-1.1c-2.2,0.2-3.4-0.2-3.8-1
		c-0.4-1.1-1.3-1.2-4.1-0.7c-2.8,0.7-3.8,0.5-5.5-1c-1-1-2.1-1.4-2.3-0.9c-0.2,0.7-1,0.7-2.4-0.1c-1.1-0.6-3.3-1.3-4.9-1.7
		c-2.2-0.5-2.8-1-2.7-2.6c0-1.5-0.7-2.3-2.4-2.7l-2.5-0.7l2.4-0.7l2.4-0.7l-2.8-1c-3.7-1.3-5.9-4.7-4.1-5.8c0.9-0.7,0.9-0.8,0-0.8
		c-0.7,0-0.9-0.5-0.7-1c0.4-0.6,1.3-0.8,2.1-0.5c0.8,0.3,2.3-0.3,3.4-1.4c1.6-1.5,1.8-2.1,0.8-2.6c-1-0.7-1-1.1,0.1-2.8
		c0.8-1,1.7-1.7,2-1.3c0.4,0.3,0.7,0.1,0.7-0.5c0-0.6,0.7-0.8,1.4-0.6c0.8,0.4,2.1,0.1,2.8-0.6c0.9-0.8,1.4-0.8,1.4-0.1
		c0,0.6-1.7,1.9-3.8,2.9c-2.1,1-3.8,2.1-3.8,2.3c0,1,3.7,4.1,4.2,3.6c0.5-0.4,0.5,0.2,0.1,1.2c-0.6,1.5-0.5,1.6,0.5,0.8
		c0.9-0.9,0.8-1.5-0.1-2.6c-0.9-1.2-1-1.7-0.1-2.6c0.9-0.8,1.1-0.8,0.8,0.2c-0.2,0.7,0.3,1.5,1,1.7c0.8,0.4,1,0,0.6-1.5
		c-0.4-1.1-0.2-1.9,0.3-1.8c0.6,0.2,0.8-0.1,0.8-0.5c0-0.5,0.7-1.2,1.6-1.7c0.8-0.6,1.4-1.4,1.1-1.9c-0.4-0.5-1-0.7-1.5-0.4
		c-0.5,0.4-0.8,0.1-0.8-0.4c0-0.6,0.7-1,1.5-1c1.2,0,4.8-6.3,4-7.1c-0.2-0.2-2,0-4.1,0.4c-2.1,0.4-4.5,0.7-5.4,0.5
		c-0.8-0.1-1.6,0.2-1.6,0.7c0,0.5,0.5,0.8,0.9,0.8c0.6,0,0.9,0.5,0.9,1c0,0.8-0.4,0.8-1.4-0.1c-1.8-1.5-6.9-0.4-9.9,2.2l-2.4,2
		l2.4-2.4c2.9-3,10.4-6.2,16.1-6.9c4.6-0.6,16-7.4,20.7-12.3c2-2.2,2.1-2.7,0.9-3.5c-1.8-1.1-6.2-0.4-11.5,1.9
		c-3.4,1.5-4.9,1.7-9.5,0.9c-3.8-0.7-6.7-0.6-9.4,0.2c-2.2,0.6-5.7,1-7.6,1c-2.1-0.1-4.6,0.4-5.7,0.9c-1.7,0.9-1.8,0.8-0.8-0.4
		c1.4-1.7,10.7-3,22.3-3c6.7-0.1,9.4-0.6,13.1-2.2c2.5-1.2,5.9-2.2,7.5-2.2c6,0,21.9-14.8,18.3-17.1c-0.9-0.7-0.8-0.8,0.7-0.8
		c1-0.1,4-2,6.4-4.2c4.5-4.1,4.5-4.2,2.4-5.2c-1.2-0.6-12.1-1.5-24.1-2.2l-22.1-1.1l0.5,3c0.7,3.7-1.1,4.1-4.2,1.2
		c-2.5-2.4-3.3-1.7-1.3,1.1c2.2,3,1.9,3.6-1.4,3.6c-2.1,0-3-0.6-3.4-1.8c-0.4-1.6-0.7-1.7-3.2-0.4c-2.3,1.1-3.4,1.2-5.4,0.4
		c-1.8-0.8-3.6-0.8-5.8-0.1c-2,0.6-3.6,0.6-4.1,0c-0.5-0.5-1.5-0.5-2.5,0c-1.1,0.6-2.3,0.4-3.8-0.7c-2-1.4-4.6-2-10.1-2.3
		c-1.1-0.1-2.2-0.8-2.4-1.6c-0.2-0.8-1.4-1.5-3.1-1.7c-7.9-0.6-18-5.1-17.3-7.6c0.5-1.4-6.6-2.9-20.9-4.4c-8-0.8-21.8-2.4-30.6-3.3
		c-8.8-1-27.7-2.8-41.9-4.1l-25.9-2.1l7.1-1.1c3.8-0.6,10.3-1.4,14.3-1.7c8.7-0.8,9.6-2.5,1.4-2.5c-3.3,0-15.1-0.3-26.2-0.6
		l-20.3-0.6l-9.8,20.1c-5.4,11.1-10.1,20.8-10.5,21.6c-0.8,1.5-3.6,3.1-8,4.4c-2.5,0.7-2.8,1.2-3.1,4.7l-0.3,3.9l5.5,1.1
		c9.4,2,24,7.2,33.9,12.1c5.1,2.5,12.9,5.8,17.4,7.2c9.4,3,15.8,6.5,25.5,13.7c3.9,2.9,9,6.5,11.2,8c2.4,1.5,6.1,4.5,8.5,6.7
		c2.5,2.1,7.4,5.7,11.1,7.8c8.5,5,14.5,10.6,31,28.6c12.3,13.5,12.9,14.1,14,12c0.7-1.3,2.1-2.3,3.6-2.5c2.9-0.4,3.4,0.2,17,20.1
		l9.7,14.1l11.8,5.8c6.5,3.2,13.4,6.1,15.4,6.5c8.2,1.5,8.1,5.1-0.5,22.2c-3.3,6.5-6,12-6.2,12.4c-0.3,0.7,20.7,29.2,26.8,36.3
		c3.7,4.2,4.9,5,10.5,6.5c3.6,0.9,10,3.4,14.4,5.5c4.4,2.1,10.9,4.5,14.5,5.5c5.7,1.6,26.8,11.7,29.3,14.1
		C569.5,6038.3,571,6038,572.6,6036.2z M437.1,6020.6c-2.7-5-3.4-10.3-2.1-15.3c0.7-2.5,0.2-2.4-5,3c-6.4,6.5-7.3,9.7-3.5,14
		c2.2,2.6,12.1,5.8,12.7,4.1C439.5,6025.9,438.5,6023.3,437.1,6020.6z M119.3,6017.9c3.6-0.6,7-1.3,7.4-1.8c0.5-0.5,1.6-3.9,2.5-7.4
		c0.9-3.6,2.9-9.8,4.5-13.8c4.7-11.6,3.7-21.1-2.1-19.8c-1.1,0.3-6.3,1.4-11.5,2.5c-5.2,1.1-10.4,2.2-11.5,2.5
		c-4.1,0.9-6.5-0.5-8.5-4.9c-1-2.5-3.1-5.1-5-6.3c-3-2.1-3.5-3.2-7.4-16.3c-3.9-13.5-4.2-16.7-2.5-21.9c0.6-1.9-0.3-2.5-8.6-6.8
		c-5.2-2.6-10.7-5.7-12.4-6.8c-3.7-2.5-3.7-2.5-1,11.1c2.9,15.6,8.1,34.3,13.3,48.4c4.2,11.3,17.3,39.1,19.8,42.2
		C97.5,6020,106.7,6019.7,119.3,6017.9z M281.7,6016.1c4.5-1.2,5.5-2.1,6.4-5.8c0.6-2.3,0.5-2.5-1.8-2.5c-1.7,0-3.9,1.3-6.7,4.2
		c-4.1,4.1-5.6,6.8-3,5.8C277.2,6017.5,279.5,6016.7,281.7,6016.1z M420.2,6013c0-2.2-0.1-3.2-0.3-2.3c-0.5,2-2.2,2.2-2.2,0.1
		c0-1.7-6.2-4.6-12.8-6c-10.1-2.2-24.6-12.6-15.1-10.8c3,0.6,3.7,0.3,6-2.5c1.4-1.6,4.3-5,6.5-7.4c5.3-5.9,2.8-5.8-6.1,0.3
		c-6.3,4.3-6.8,4.5-11.6,4c-16.2-1.6-18-1.7-17.5-0.8c0.4,0.6,2.8,1.2,5.6,1.5c6.6,0.7,9.8,2.3,12.1,5.9c1.2,1.9,4.3,4.2,8.3,6.3
		c3.5,1.9,10.9,6.1,16.7,9.5c5.7,3.4,10.4,6.2,10.4,6.2S420.1,6015.3,420.2,6013z M324,6009.6c3.1-4.5,2.5-5.8-1.9-4.4
		c-3.2,0.9-3.3,1.1-3.3,5.7C318.8,6016.2,319.5,6016,324,6009.6z M290.2,5991c-2-2.2-7.9-4.6-8.9-3.7c-0.8,0.8,3.3,9.5,5.8,12.6
		l1.9,2.4l1.6-4.6C292.1,5993.2,292.1,5993,290.2,5991z M304.3,5987.9c0.8,0,1.3-0.7,1.3-1.4c0-0.8,0.6-2.6,1.3-4.1l1.3-2.5
		l-5.6,0.2c-3,0.1-5.9,0.4-6.4,0.8c-2.1,1.2,3,8.5,5.4,7.5C302.3,5988.1,303.5,5987.9,304.3,5987.9z M286.7,5971.8
		c0-0.6,3.2-0.9,7.8-0.9c8.1,0,10.1-0.8,10.1-4c0-2.3-2.2-2.2-8.7,0.6c-2.9,1.2-5.8,1.9-6.4,1.5c-0.6-0.4-0.9-2.2-0.8-4.1
		c0.1-2.3-0.3-3.9-1.1-4.4c-2.3-1.4-5.6-2.1-7.2-1.4c-3.3,1.3,1.1,13.8,4.9,13.8C286.1,5972.8,286.7,5972.4,286.7,5971.8z
		 M344.8,5965.7c0.1-0.8-0.2-1.2-0.7-0.8c-0.5,0.3-0.8-0.1-0.8-0.8s-0.6-1.9-1.3-2.5c-0.8-0.7-1.7-2.4-2-3.9
		c-1.2-5.7-5.7-5.8-6.3-0.2c-0.2,1.8-0.8,2.5-2.1,2.5c-2,0-2.2-0.4-5.8-8.2c-2.8-6.3-4.5-7.1-4.1-1.9c0.3,3.2,0.1,3.5-2.1,3.2
		c-4-0.4-6.3-3.8-10.3-14.7c-4.2-11.4-4.4-13.1-2.5-16.6c2.9-5.2,1.6-5-7.6,1.1c-4.1,2.6-9,5.1-10.7,5.4c-2.5,0.5-3.4,1.1-3.6,2.6
		c-0.4,2.5,8.2,9.3,12.9,10.3c1.9,0.4,4,1.9,5.6,4c5,6.5,6.3,7.8,8.2,8.1c6.3,1.2,10.3,2.9,15.2,6.7c4.9,3.9,14.1,7.8,15.3,6.6
		c0.3-0.3,0.1-0.5-0.5-0.5s-1.2-0.7-1.6-1.4c-0.5-1.2-0.2-1.2,1.8,0.1c1.3,0.8,2.1,2,1.7,2.6c-0.3,0.6-0.2,0.7,0.2,0.3
		C344.2,5967.4,344.7,5966.5,344.8,5965.7z M473.2,5955.3c2.2-4.4,4-8.4,4-8.8c0-0.5-1.1-0.7-2.5-0.4c-1.9,0.3-3.7,1.8-6.3,5.7
		l-3.6,5.3l1.6,3.1c0.9,1.7,2,3.1,2.3,3.1C469,5963.3,471.1,5959.8,473.2,5955.3z M299.4,5952.1c-0.4-2.5-1.5-4.5-3.1-5.8l-2.5-2
		l-2.5,2.9c-1.5,1.6-2.6,4-2.6,5.3c0,2.2,0.4,2.4,4.1,2.4c2.2,0,4.6,0.4,5.4,0.9C300,5957,300.2,5956.5,299.4,5952.1z M279,5928.7
		c-0.3-2.4-0.8-2.7-4.2-3.2c-2.2-0.3-4.6-1-5.4-1.7c-1.3-1.1-1.5-1.1-1,0c0.5,1.3,8.8,7.4,10.2,7.4
		C279,5931.3,279.2,5930.2,279,5928.7z M257.8,5928c8.7-2.5,9.1-4,2.2-8.3c-9.4-5.9-17.9-15.4-19-21.2c-0.4-2-0.2-2.9,0.8-3.3
		c1.8-0.7,6.7,0.7,9.7,2.6c2.3,1.4,7.1,8.2,7.4,10.4c0.1,0.7,0.8,2.2,1.8,3.4l1.6,2.3l-0.9-2.4c-4.7-12.7-6.4-15.7-11.4-19.6
		c-2.8-2.2-7-5.6-9.1-7.5c-3.9-3.3-4.1-3.7-3-5.9c1.9-4.1,5-5.1,15.5-5c11.6,0.1,16.3,1.8,17.2,5.8c0.4,2,1.3,2.9,3.5,3.6l3,0.8v11
		c0,6,0.3,11.3,0.8,11.7c0.4,0.4,0.7-1.2,0.7-3.5c0.1-2.3,0.8-9.4,1.8-15.9c1.7-12.4,1.4-16.4-1.5-18.7c-1.7-1.3-3.3-1.3-22.5,0.4
		c-4.8,0.5-8.1,0.2-11.9-0.9c-2.9-0.8-5.9-1.2-6.8-0.9c-0.8,0.3-2,2.2-2.5,4.1c-0.9,2.9-0.7,6.2,1.4,19c1.3,8.5,2.6,17.3,2.8,19.5
		l0.4,4.1l-2.3-1.5c-1.2-0.8-2.3-1.1-2.3-0.8c0,0.4-0.8-0.1-1.8-0.9c-1.8-1.6-2.1-3.6-0.7-5c0.4-0.4,0.6-0.2,0.4,0.6
		c-0.2,0.7,0.3,1.5,0.9,1.7c1.7,0.7,0.4-2.4-2.8-6.4c-1.8-2.5-4.5-4.2-8.8-5.9c-7.8-3.1-12.3-5.9-17-10.8c-2.7-2.9-4.4-3.9-6.6-3.9
		c-2.7,0.1-2.5,0.5,7.1,9.6c16.4,15.7,30.2,27.9,35.6,31.5c2.7,1.8,5,4,5,4.7c0,1.9-0.7,1.7-8.5-2.5c-8.6-4.6-17.6-10.8-24.3-16.4
		c-5.5-4.6-6.8-5.1-6.8-2.5c0,0.9-0.7,2-1.4,2.4c-2,0.8-11.9-4.7-21.7-12c-10-7.5-18.5-12-22.5-12c-1.9,0-4.1,0.9-6.1,2.6
		c-2.8,2.3-3,2.9-2.1,4.6c1.6,3.1,1.3,4.3-1,3.8c-1.9-0.5-1.9-0.3,0.6,1.5c1.4,1.1,9.7,6.3,18.3,11.5c8.6,5.2,15.7,10,16,10.7
		c0.8,2.7-6.8,1-17.9-4.1c-10.7-4.8-11.9-5.2-18.7-5.2c-6.9,0-19.2-2.8-24.4-5.7c-1.2-0.6-2-0.7-2-0.1c0,1.7,9.8,5.7,22.1,9.1
		c6.7,1.8,12.9,3.3,13.9,3.3c3.3,0,2.6,1.7-0.8,2.3c-10.3,1.7-23.5-1-31.8-6.5c-2.7-1.8-9.2-7.8-14.5-13.3
		c-5.4-5.5-9.9-9.7-10.2-9.5c-0.8,0.9,2.5,6.8,7.7,13.3c5.4,6.8,6,8.1,3.9,8.1c-2.6,0-18.6-12-29.7-22.3c-3.2-2.9-5.8-5.1-5.8-4.7
		c0,0.3,0.8,1.9,1.9,3.6c2.2,3.6,2.5,6.4,0.6,6.4c-1.5,0-10-6.1-18.8-13.6c-6.2-5.3-8.7-6.7-6.2-3.7c0.8,0.8,6.2,5.8,12.3,11
		c15.6,13.5,17,14.7,17.9,14.7c0.4,0,3.5,1.5,6.9,3.4c4.1,2.3,6.4,4.1,7.1,5.8c0.8,2.5,0.8,2.5,0.9,0.4c0.1-1.2,0.4-2.1,0.8-1.9
		c0.4,0.2,2.5,1.2,4.6,2.3c4.4,2,5.3,3.2,1.8,2.5c-1.7-0.4-2.4,0.1-2.8,1.8l-0.6,2.2l-1.8-2.1c-1.3-1.6-2-1.8-2.8-0.9
		c-0.9,0.8-1.4,0.8-2.3-0.4c-0.7-0.8-1.6-1.3-2.3-1.1c-0.7,0.3-3.1-0.5-5.6-1.5c-3.7-1.7-4.3-2.4-4-4.1c0.2-1.2-0.1-2.7-0.8-3.3
		c-1-0.9-1.2-0.8-1.2,1.2c0,3.2-2.1,3-5.8-0.5c-2.6-2.4-2.9-2.9-1.7-3.8c1.1-0.8,0.9-0.9-1-0.9c-1.7,0-3.2-1.1-5.6-4.2
		c-1.8-2.4-3.3-4.2-3.5-4.2c-0.2,0,0.7,1.8,1.8,4c3.8,7,11.8,14.2,20.1,18.1c4.1,2,8.2,3.9,9,4.3c0.8,0.4,1.5,1.3,1.7,2.1
		c0.2,1.1-0.7,1.3-4.7,1l-5-0.4l6.1,3.1c3.6,1.9,6.6,2.8,7.2,2.4c0.7-0.4,1.7-0.1,2.5,0.8c2.4,2.3,2.6,1.7,1.1-2.1
		c-0.8-1.9-1.1-3.8-0.8-4.1c0.7-0.7,11.5,2.5,12.5,3.6c0.3,0.3-2,0.3-4.9,0c-4.5-0.5-5.5-0.3-5.5,0.9c0,1.2,2,1.4,14.9,1.1
		c8.1-0.2,16.5,0,18.6,0.4c2.1,0.4,7,0.3,10.8-0.2c5.7-0.7,6.2-0.8,2.8-0.9c-2.4-0.1-8.5-1.6-13.7-3.5l-9.4-3.2l6.6,0.5
		c11.5,0.8,56.8,1.5,59.4,0.8c2.2-0.6,0.4-1.7-13.9-9.2c-16.2-8.6-25.3-14.1-25.3-15.5c0-1.4,8.6-4.9,11.9-4.9c4.1,0,10,3,20.7,10.8
		c4.7,3.4,12.1,8.1,16.5,10.4c4.4,2.3,10.6,5.8,13.7,7.7c3.1,2,8.9,5,12.7,6.7C242,5929.9,249.7,5930.3,257.8,5928z M450.2,5928
		c-2.4-1.8-3.2-1.8-3.2,0c0,0.9,0.9,1.4,2.5,1.4C452,5929.4,452,5929.3,450.2,5928z M168.4,5923.6c2.7-1.1,2.7-1.2,0.7-1.6
		c-1.2-0.2-2.7,0.2-3.5,0.8c-0.8,0.6-2.5,1.5-4,2c-2.5,0.8-2.5,0.8,0.7,0.5C164,5925.1,166.9,5924.3,168.4,5923.6z M277.9,5912.2
		c-0.3-0.8-0.6-0.5-0.6,0.6c-0.1,1,0.2,1.6,0.5,1.2C278.1,5913.7,278.2,5912.9,277.9,5912.2z M96.1,5909.2c-0.8-0.8-2.4-1.6-3.7-1.9
		c-1.9-0.5-1.7-0.3,0.8,1c1.6,0.8,3,2,3,2.5c0,0.6,0.3,0.7,0.7,0.3C97.3,5910.8,96.9,5909.9,96.1,5909.2z M235.4,5909.4
		c0.4-0.7,0.4-0.9-0.1-0.6c-0.4,0.4-1.4,0.2-2.3-0.5c-1.3-1-1.3-0.9-0.2,0.6C234.4,5910.8,234.6,5910.9,235.4,5909.4z M582.1,5848.5
		c-0.2-2.5,0.2-3.2,2.4-4.1c2.5-0.9,2.5-1,0.8-2.4c-2.2-1.5-3.4-1.7-3.4-0.4c0,0.6-1.2,2.3-2.8,3.9c-2.4,2.5-2.9,2.7-3.4,1.4
		c-0.8-1.9-2-1.2-1.8,1c0.2,3.1,1.4,4,5,3.7C582.1,5851.5,582.3,5851.3,582.1,5848.5z M570.1,5850.3c0.3-0.6-0.3-1.4-1.3-1.9
		c-2.7-1.5-3.1-1.3-1.8,0.8C568.3,5851.3,569.2,5851.6,570.1,5850.3z M595.4,5849.6c0.5-1.3,0.4-1.4-0.8-0.4
		c-1.6,1.3-1.8,1.9-0.6,1.9C594.5,5851.1,595.2,5850.5,595.4,5849.6z M523.1,5848.1c-0.1-1.5,0.2-2.1,1.2-1.8
		c0.8,0.2,2.3,0.5,3.3,0.6s3,0.8,4.5,1.4c2.3,1.1,2.9,1,5.4-0.8c1.5-1.1,3.8-2.2,5.1-2.3c1.9-0.2,2.2-0.6,1.4-1.8
		c-1.1-2.1-6.7-2.9-7.7-1.1c-0.7,1-1.1,1.1-2.3,0.2c-1.1-0.9-1.5-0.9-2.2,0.1c-0.4,0.7-1.4,0.9-2.4,0.7c-0.8-0.4-1.3-0.3-1,0.2
		c0.3,0.5,0,1-0.8,1.3c-0.8,0.4-1.7-0.4-2.3-2.2c-0.9-2.5-0.8-2.7,1.7-3.3c1.5-0.4,3.5-0.1,4.5,0.6c1.5,0.9,2.2,0.9,3.3-0.3
		c1-0.9,1.1-1.8,0.5-2.5c-0.7-0.7-0.6-1.5,0.1-2.8c1.2-2.4,1.3-4.1,0.1-2.1c-0.7,1.1-0.9,1-1.5-0.5c-0.5-1-1.3-2.5-2-3.1
		c-0.9-1-1.4-0.5-2.4,3.2c-1,3.9-1.7,4.7-4.8,5.9c-3,1.1-3.5,1.7-3.1,3.5c0.4,1.2,0.1,2.5-0.4,2.7c-0.6,0.4-0.8,1.8-0.6,3.1
		c0.6,3.2,0.4,3,1.5,3C522.9,5850.2,523.3,5849.2,523.1,5848.1z M598.6,5847.8c0.1-1.3-0.3-2.4-0.8-2.4c-0.6,0-0.9,1-0.9,2.4
		c0,1.3,0.4,2.4,0.8,2.4S598.6,5849.2,598.6,5847.8z M602.3,5848.6c-0.7,1.8,0.1,2.1,2.2,0.7c1.2-0.8,1.1-1.2-0.8-2.8
		c-2.6-2.3-3.9-1.7-3.9,1.7c0.1,2.5,0.1,2.5,1.6,0.7C602.6,5847.3,602.8,5847.2,602.3,5848.6z M590.4,5847.8c0-0.8-0.8-1.8-1.9-2.4
		c-1.3-0.7-1.9-0.7-1.9,0c0,0.5,0.7,0.9,1.4,0.9s1.4,0.7,1.4,1.4s0.2,1.4,0.5,1.4C590.2,5849.2,590.4,5848.6,590.4,5847.8z
		 M596,5845.9c0-0.8-0.6-1.3-1.1-1.4c-0.9,0-0.9-0.2,0-0.6c2.3-0.9,1.2-3.6-3.5-8.5c-0.7-0.7-1.7-1.1-2.3-0.9
		c-1.6,0.5-1.9,2.5-0.5,2.5c0.9,0,1.3,1.1,1.2,3.8c-0.1,2.1,0,3.6,0.3,3.4c0.5-0.6,2.9,1.6,2.5,2.3c-0.2,0.3,0.5,0.7,1.5,0.7
		C595.2,5847.2,596,5846.6,596,5845.9z M621.9,5846.4c0.3-0.5,0.1-0.9-0.4-0.9c-0.6,0-1,0.5-1,0.9c0,0.6,0.2,0.9,0.4,0.9
		C621.2,5847.4,621.7,5847,621.9,5846.4z M505.9,5843.6c-0.6-0.6-0.9-0.2-1,1.1c-0.2,1.5,0.1,1.7,0.9,0.8
		C506.4,5844.9,506.5,5844.3,505.9,5843.6z M609.6,5843.1c-0.4-0.9,0-1.4,1-1.4c1.1,0,1.4-0.6,0.9-2.1c-0.6-2.1-0.5-2.1,0.8-0.4
		c0.8,0.9,1.3,2.1,1.1,2.4c-0.2,0.3,0.7,0.6,1.9,0.6c3.1,0,3.6-2.1,1-4.6c-1.8-1.7-1.9-2.4-0.9-3.3c0.7-0.7,1.8-0.8,2.5-0.5
		c0.7,0.5,0.7,0.1-0.2-0.9c-0.8-0.9-1.6-1.2-2-0.7c-0.8,1.4-3.3-1.8-3.3-4.3c0.1-3.3,1.1-3.5,1.9-0.4c1,4.7,1.9,2.6,1.7-3.8
		c-0.1-3.5,0.3-6.6,0.9-7.4c0.9-1.1,0.8-1.2-1-0.2c-1.5,0.8-2,1.8-1.7,3.3c0.2,1.2,0,2.7-0.5,3.5c-0.6,0.9-0.8,0.4-0.9-2
		c-0.1-1.8-0.1-3.9,0-4.4c0.1-0.7-0.6-1.2-1.5-1.2c-1.3,0-1.4-0.2-0.4-0.8c0.8-0.6,0.9-1,0.2-1.4c-0.6-0.4-0.8-1-0.6-1.5
		c0.3-0.4-0.8-1.2-2.4-1.8c-3.1-1-3.4-1.5-1.7-2.5c0.7-0.4,0.8-0.3,0.4,0.4s-0.1,1.1,0.8,1.1c0.8,0,1.8,0,2.3,0
		c0.4,0,0.7-0.6,0.7-1.1c0-0.7-0.7-1.1-1.4-0.9c-1.1,0.3-1.2,0.1-0.2-0.8c0.6-0.7,1.1-1.5,1.1-1.9c0-1-6.5-3.9-7.5-3.2
		c-0.5,0.3-0.7-0.3-0.5-1.2c0.2-1.1-0.2-1.8-0.9-1.7c-0.8,0-1.4-0.3-1.5-0.8c-0.2-1-3-3.3-3.5-2.8c-0.8,0.8,2.2,5.2,3.5,5.2
		c1.1,0,1.2,0.2,0.3,0.8c-2,1.3,0.2,14.4,3,18c0.8,1.1,0.8,1.2-0.3,0.7c-0.8-0.6-1.1-0.5-0.8,0.5c0.3,0.8,1,1.2,1.6,1
		c0.7-0.1,0.9,0.2,0.6,0.8c-0.3,0.5,0.6,1.4,1.9,1.9c2.2,0.8,2.4,1.2,1.4,2.4c-0.8,1-0.8,1.4-0.1,1.4c0.7,0,0.8,0.4,0.6,0.9
		c-0.3,0.5-0.1,1.9,0.6,3c1.1,2.2,1.1,2.2-0.8,0.5c-1.1-1-2.9-1.6-4.5-1.4c-2.7,0.3-4.2,2.5-2.1,2.9c0.7,0.2,2.7,0.8,4.4,1.4
		c2.4,0.8,3.5,0.8,4,0.1c0.3-0.6,0.8-0.2,1.1,0.9c0.3,1.1,0.1,1.8-0.3,1.5c-0.9-0.6-8.5,1.6-8.5,2.5c0,0.4,0.7,1.1,1.4,1.8
		s1.1,1.6,0.8,2.3c-0.3,0.6-0.3,0.8,0.1,0.5c0.6-0.5,3.5,0,5.9,0.9C610,5844.5,609.9,5843.9,609.6,5843.1z M587.6,5840.5
		c-0.8-0.8-1-0.7-1,0.4c0,1.9,1.2,3.2,1.7,1.8C588.6,5842,588.2,5841,587.6,5840.5z M510.8,5838.7c-0.8-1.1-1.5-1.9-1.6-1.7
		c0,0.3-0.2,1.2-0.4,2.2c-0.2,1.2,0.1,1.6,1,1.2c0.8-0.3,1.3,0,1.3,0.6c0,0.6,0.3,0.8,0.6,0.5C512,5841.1,511.6,5839.9,510.8,5838.7
		z M507.4,5839.9c0-0.5-0.8-1.1-1.6-1.4c-1.4-0.6-1.4-0.8-0.3-1.6c1.1-0.8,1.2-1,0.1-1.5c-1-0.5-1-0.7,0-1.3c0.9-0.6,1-1,0.3-1.8
		c-1.4-1.4-3.6,3.9-2.7,6.5C503.7,5840.7,507.4,5841.6,507.4,5839.9z M516.9,5837.6c0.8-0.7,2.5-2.7,3.9-4.7
		c1.4-2.2,2.7-3.2,3.1-2.6c0.3,0.6,0.3,1.5-0.1,2.2c-0.4,0.7-0.3,0.8,0.4,0.4c0.7-0.4,1.1-0.1,1.1,0.6c0,0.8,0.5,0.6,1-0.5
		c0.6-0.9,0.8-2,0.5-2.3c-0.3-0.3,0.2-1.1,1.1-1.8c1.3-1,1.3-1.2,0.2-1.3c-1.1,0-1-0.4,0.4-1.4c0.9-0.8,1.5-1.9,1.2-2.6
		c-0.8-2.1,4.1-4.4,8.2-4c2.9,0.4,3.4,0.2,3.4-1.3c0-1,0.4-2.1,0.8-2.4c0.5-0.4,0.7,0.3,0.4,1.3s0,1.9,0.6,1.9s1-0.6,1-1.1
		c0-0.8,0.4-0.8,0.9,0.2c0.8,1.1,1.1,1.1,1.7,0.2c0.5-0.7,1.4-0.9,2.2-0.7c1.5,0.6,5.4-2.9,4.3-4c-0.4-0.3-0.3-1,0.2-1.6
		c1-1.3,1.9-6.5,2.5-15.2l0.5-6.6l-3.4,5.2c-1.8,2.8-3.4,6.2-3.4,7.5c-0.2,2.2-0.2,2.2-0.6,0.3c-0.5-2.5-1.1-2.6-5.7-0.8
		c-1.9,0.8-3.6,1.2-3.8,1c-0.2-0.2,1.6-1.1,4-2.1c3.5-1.2,5.3-2.8,8.6-7.4c2.3-3.3,4.4-7.3,4.7-8.9c0.6-2.9,0.6-2.9-3.3-2.9
		c-2.8,0-4.3,0.6-5.5,2c-1.8,2.1-7.7,7.9-15.7,15.2c-4.6,4.3-4.7,4.5-2.3,4.5c1.4,0,2.7,0.4,3,0.8c0.2,0.4-1,0.6-2.8,0.4
		c-3.8-0.5-4,0.4-1.3,4.7c2.4,3.9,2.4,5.8,0.3,7.4c-1.5,1.2-1.6,1.1-0.4-0.4c1-1.3,1-2.2,0.3-4c-1.4-3.1-3-3-3.1,0.3l-0.2,2.5
		l-0.4-2.5c-0.2-1.5-0.9-2.6-1.5-2.6c-2.3,0-8,4.7-9.2,7.5c-0.8,1.5-1.9,2.8-2.5,2.8c-1.7,0-1.5-1.4,0.2-2.8c0.8-0.7,1.3-1.8,1-2.5
		s0.2-1.4,1-1.7c0.8-0.4,1.3-0.8,1-1c-0.9-1-3.7,0.8-3.2,2c0.3,0.8-0.1,1.3-0.8,1.3s-1.5,0.3-1.5,0.8c-0.6,3.1-0.5,4.8,0.2,4.3
		c1.1-0.7,1,0.3,0,2.4c-0.6,0.9-0.7,2.5-0.4,3.7c0.5,1.9,0.6,1.9,3,0.5l2.5-1.4l-2.4,2c-3,2.5-3.8,2.5-3.8-0.1
		c-0.1-2.1-0.1-2.1-1.4-0.4c-1.2,1.7-1.2,4,0.2,8.1c0.4,1.1,0.7,1,1.8-0.5c1-1.3,1.4-1.4,1.3-0.5c-0.1,0.8-0.2,1.9-0.1,2.4
		C511.2,5838.9,515.1,5839,516.9,5837.6z M524.3,5835.1c0-0.5-0.8-0.9-1.6-0.9c-1.4,0-1.5,0.2-0.3,0.9
		C524.2,5836.2,524.3,5836.2,524.3,5835.1z M567,5832.1c-0.7-0.7-1.1-0.8-1.1-0.2c0,1.3,1.1,2.5,1.8,1.8
		C567.8,5833.4,567.5,5832.7,567,5832.1z M589.9,5830c0.9,0.4,1.1,0,0.8-1.4c-0.5-1.9-0.5-1.9-2.2,0.2c-0.9,1.1-1.4,2.5-1.1,3
		c0.4,0.5,0.8,0.2,0.9-0.7C588.5,5830.2,589.1,5829.7,589.9,5830z M598.4,5830.7c-0.2-0.9-0.8-3.1-1.3-4.9c-0.6-1.8-0.8-3.6-0.5-4
		c0.3-0.5-0.3-0.8-1.2-0.9c-0.9,0-1.2-0.3-0.6-0.5c1.6-0.7,0.4-3.2-1.2-2.5c-0.8,0.3-1.3,1.5-1.3,2.8c0,1.2,0.4,2.1,0.8,1.8
		c0.5-0.3,0.8,0,0.8,0.7c-0.1,4.1,0.4,7.3,1.1,6.9c0.5-0.3,1,0.1,1.4,0.8C597.1,5832.8,598.8,5832.7,598.4,5830.7z M571.1,5827.1
		c-2-1.5-3-1.2-2,0.4c0.3,0.6,1.3,1,2.2,1C572.7,5828.4,572.7,5828.3,571.1,5827.1z M580.6,5824c-0.6-0.7-0.6-1.1-0.1-1
		c2.4,0.4,3.2-0.3,3.1-2.6c-0.2-2.3-0.2-2.4-0.6-0.5c-0.8,3.8-1.7,2.2-1.4-2.4c0.3-4.3,0.2-4.4-1.1-2.2c-0.8,1.3-1.7,2.3-2.1,2.1
		c-1.6-0.7-2,3.2-0.5,5c1.4,1.7,1.4,1.8-0.1,0.6c-1.5-1.1-1.7-1-1.7,1c0,3.4,1.7,4.7,3.7,2.8C581.1,5825.7,581.3,5824.8,580.6,5824z
		 M600.4,5823c0.4-2.7-2.9-19-4-19c-0.5,0-0.4-0.4,0.3-0.8c0.9-0.7,0.8-1.5-0.4-4.4c-1.4-3.5-1.6-3.6-2.8-2c-0.7,1-1,2.1-0.8,2.5
		c0.3,0.4,0.1,0.8-0.5,1c-2.2,0.7-1.9,12.3,0.3,11.8c0.6-0.1,2.4,2.8,3.9,6.5C599.3,5825.5,599.9,5826.1,600.4,5823z M571.1,5822
		c2.5,0.5,3.4-0.2,2.9-2c-0.3-1.2,0-1.9,0.8-1.9c0.8,0,1.3-0.5,1.3-1s-0.8-0.8-1.8-0.4c-1.6,0.5-1.9,0-2.2-2.9l-0.3-3.5l-3.1,2.5
		c-1.6,1.4-2.8,3-2.5,3.5c0.3,0.5,0,0.8-0.6,0.8c-0.7,0-0.8,0.6-0.1,1.8c0.6,0.9,0.7,2.1,0.3,2.5c-0.4,0.4,0.3,0.3,1.4-0.3
		c1.8-1,2-0.8,1.5,1c-0.3,1.4-0.2,1.7,0.5,0.8C569.9,5822.4,570.6,5821.9,571.1,5822z M588.7,5815.7c0.2-6.5-0.2-7.8-1.9-7.6
		c-1.7,0.1-1.8,0.8-1.3,10.1c0.2,2.9,0.3,3.1,1.7,1.7C588,5819.1,588.7,5817.1,588.7,5815.7z M560.1,5810.6c0-2.2-0.1-2.2-0.8-0.5
		c-0.5,1-0.8,2.9-0.8,4.2c0,2.2,0.1,2.2,0.8,0.5C559.7,5813.8,560.1,5811.9,560.1,5810.6z M593.7,5815.3c0.3-0.5,0.1-0.9-0.4-0.9
		c-0.6,0-1,0.5-1,0.9c0,0.6,0.2,0.9,0.4,0.9C592.9,5816.2,593.4,5815.9,593.7,5815.3z M558.2,5809.9c1.8-8.8,2.5-22.4,1.1-21.6
		c-0.8,0.5-1,2.5-0.9,5.2c0.1,2.5,0,4.9-0.4,5.4c-0.6,1-2.5,12.1-2.5,14.8C555.5,5817.3,557.2,5814.9,558.2,5809.9z M568.5,5806.9
		c0-0.3,0-1.4,0.1-2.5c0.1-1.6,0.3-1.6,1-0.5c0.8,1.1,1.5,0.8,4.4-2.1l3.6-3.6h-2.8c-3.1,0-7.1-2.3-7.1-4c0-0.7,0.8-0.2,2,1
		c1.5,1.6,2.8,2,5.4,1.8c3.1-0.3,3.5-0.6,3.6-3.1c0.1-1.5,0.8-4.1,1.6-5.6c0.8-1.5,1.3-3.1,1-3.6c-0.3-0.4,0.2-0.8,0.9-0.8
		c0.8,0,1.5-0.8,1.5-2c0-1,0.5-1.6,0.9-1.3c1.8,1.1,0.9-4-1-6.5l-2-2.5l-2.4,1.9c-1.3,1-3.2,1.9-4.1,1.9c-1,0-1.8,0.5-1.8,1
		c0,0.5-0.4,0.8-0.8,0.5c-1-0.7-4,1.5-4.2,3.2c-0.1,0.8-0.7,2.3-1.2,3.3c-2.1,3.9-2.5,8.6-0.8,11.8c1.2,2.3,1.3,3.3,0.5,4.1
		c-0.8,0.8-0.9,0.7-0.5-0.4c0.3-0.8-0.1-2.3-0.8-3.3c-1.4-1.8-1.4-1.7-1.5,1.4c0,3.6-1.1,6-2.5,5.5c-0.5-0.1-0.9,1-1,2.5
		c-0.1,1.9,0,2.2,0.4,0.8c0.2-1.2,0.8-2.2,1.2-2.2s0.5,1.4,0,3.1c-0.4,1.6-1,4.3-1.4,5.8l-0.6,2.8l4.2-4.1
		C566.7,5809.4,568.6,5807.2,568.5,5806.9z M579.2,5811.3c-0.7-0.7-1.1-0.8-1.1-0.2c0,1.3,1.1,2.5,1.8,1.8
		C580.1,5812.7,579.8,5811.9,579.2,5811.3z M577,5811.3c-0.3-1.3-1.7-2.6-2.8-2.6c-0.4,0,0,0.8,0.8,1.9
		C576.9,5812.8,577.2,5812.9,577,5811.3z M524,5808.2c0.9-0.8,1.3-1.4,0.8-1.4c-0.5,0-1.8,0.7-2.8,1.4c-0.9,0.8-1.3,1.4-0.8,1.4
		C521.6,5809.6,522.9,5809,524,5808.2z M581.2,5809.1c0.3-0.4,0.2-1.4-0.4-2.4c-0.5-1-0.6-1.8-0.1-1.8c0.8,0,2.3-4.8,1.6-5.5
		c-0.6-0.6-5.2,8.6-4.6,9.3C578.3,5809.7,580.4,5809.9,581.2,5809.1z M587.5,5802.8c0-2.4-1.5-5.1-2.4-4.3c-0.3,0.3-0.8,2.4-1,4.5
		c-0.6,3.9-0.5,4,1.4,3C586.7,5805.3,587.5,5804,587.5,5802.8z M562.8,5798.6c0.1-1.3-0.1-2.2-0.5-1.8c-0.9,0.9-1.3,4.3-0.5,4.3
		C562.3,5801.2,562.7,5800,562.8,5798.6z M608.3,5798.4c0-0.5-0.3-2.2-0.6-3.8c-0.5-2.2-1.1-2.9-2.6-2.9c-1.3,0-1.6-0.3-0.8-0.8
		c1.7-1-1.1-5-3-4.3c-0.8,0.4-1.1,0.9-0.8,1.4c0.3,0.5-0.5,0.8-1.7,0.9c-2.1,0-2.1,0.1-0.3,0.8c1.6,0.7,1.6,0.8,0.3,0.8
		c-2.9,0.2-1.9,1.8,3.2,5.3C606.9,5799.4,608.3,5799.8,608.3,5798.4z M563.9,5790.8c0.1-1.2,0-1.2-0.8,0c-0.5,0.8-0.8,2.3-0.8,3.3
		v1.9l0.8-1.9C563.5,5793,563.9,5791.5,563.9,5790.8z M587.1,5792.7c0.3-0.5,0.1-0.9-0.4-0.9c-0.6,0-1,0.5-1,0.9
		c0,0.6,0.2,0.9,0.4,0.9C586.3,5793.6,586.8,5793.2,587.1,5792.7z M563,5785.4c0-1.7-0.4-3.1-0.9-3.1c-0.5,0-0.9,2-0.9,4.5
		c0,3.2,0.3,4.1,0.9,3C562.5,5789.1,563,5787,563,5785.4z M591.3,5785.4c-1-1.6-1-1.6-0.6,0c0.3,0.9,0.6,2.3,0.7,2.8
		c0,0.8,0.2,0.8,0.5,0C592.1,5787.6,591.9,5786.4,591.3,5785.4z M570.3,5776.5c1.8-1.8,2.1-2.6,1.1-2.7c-0.8,0,0.2-0.6,2-1.2
		c2.5-0.9,3.4-1.8,3.6-3.8c0.3-2.1,0-2.5-1.4-2.3c-0.9,0.2-1.6,0.8-1.5,1.3c0.1,0.6-0.4,1-1.1,1c-0.8,0-1.1-0.4-0.8-0.8
		c0.3-0.4,0.1-0.8-0.4-0.8s-1.2,0.9-1.6,2.2c-0.6,1.8-0.8,1.8-1.1,0.5c-0.7-2.7-1.9-2-3.5,2.4c-1.7,4.4-1.9,6-1.6,11.5l0.2,3.8
		l1.9-4.2C567,5780.9,568.9,5777.9,570.3,5776.5z M228.7,5781.4c1-1.7,8.1-4.9,9.5-4.3c0.8,0.3,1.1,0.1,0.8-0.4
		c-0.3-0.6,0.3-0.9,1.4-0.9c1,0,2.9-0.6,4.1-1.3c1.1-0.8,4.8-2.1,8.2-2.9c3.8-0.9,7.2-2.5,8.8-4.1c3.4-3.2,3.2-4.1-0.5-2.9
		c-4.7,1.3-5.8,1.1-5.2-1c0.3-0.9,0-2-0.7-2.2c-0.6-0.3,0.8-0.8,2.9-1.1l3.9-0.7l4.3-12c5.4-14.9,5.7-16,4.3-19.3
		c-0.8-2.4-0.7-3.2,1.4-6.3c2.8-4.3,2.8-4.7,0.6-8.5c-1.8-2.9-1.8-2.9-3.1-0.9c-0.7,1.1-3.2,3.3-5.7,4.8c-4.1,2.5-4.5,3.2-4.5,6.1
		c0,4.2-2.2,6.4-8.6,8.5c-13.1,4.3-16.6,7.4-22.5,19.8c-2.5,5.2-6.4,12.4-8.9,15.8c-3.5,5.2-4.1,6.3-2.5,5.8
		c2.8-0.8,2.5,0.9-0.4,2.2c-3.7,1.7-2.8,2.7,3.6,4.7C227,5782.5,228,5782.6,228.7,5781.4z M560.6,5780.8c1-2.6,0.6-3.7-0.8-1.9
		c-0.8,1-1.4,2.2-1.4,2.6C558.3,5782.9,560,5782.4,560.6,5780.8z M559.6,5776.5c1.3-2.6,2.3-5.1,2-5.3c-0.3-0.3-0.6-0.3-0.7-0.1
		c-0.2,0.2-2.4,2.6-5,5.4l-4.6,4.9h2.9C556.9,5781.4,557.4,5780.8,559.6,5776.5z M269.5,5777.8c0.7-0.5,2.4-3.5,3.7-6.9
		c1.3-3.3,5-10.8,8-16.5c3-5.8,5.6-10.8,5.6-11.1c0-0.4-0.9-0.1-2.1,0.5c-1.7,0.8-2.3,0.8-3.2-0.6c-1.1-1.5-1.3-1.3-2.5,1.5
		c-0.8,1.8-4,9-7.1,16c-7,15.7-7.6,17.8-5.3,17.8C267.6,5778.5,268.9,5778.1,269.5,5777.8z M600.7,5776.6c-0.6-1-1.2-1.9-1.5-1.9
		c-0.2,0,0,0.8,0.6,1.9s1.2,1.9,1.5,1.9C601.5,5778.5,601.3,5777.7,600.7,5776.6z M595.1,5777.2c0-0.3-0.4-0.8-0.9-1
		c-0.5-0.3-0.9-0.1-0.9,0.4c0,0.6,0.5,1,0.9,1C594.7,5777.6,595.1,5777.4,595.1,5777.2z M198,5770.3c-0.1-2.1-0.2-2.3-0.7-0.8
		c-0.4,1.5-0.7,1-1.6-1.9l-1.2-3.8l-0.1,4.5c-0.1,3.9,0.2,4.4,1.8,4.4C197.6,5772.9,198.1,5772.3,198,5770.3z M197.5,5764.1
		c0.1-1.2-0.4-2.3-0.9-2.3c-0.8,0-0.9,0.7-0.4,2.2c0.5,1.1,0.7,2.4,0.4,2.6c-0.2,0.3-0.1,0.4,0.3,0.1
		C197.1,5766.5,197.5,5765.2,197.5,5764.1z M462.9,5759.9c0.2-0.7-0.6-1.1-1.6-1.1c-2,0-2.5,1-1.3,2.3
		C460.8,5761.8,462.4,5761.2,462.9,5759.9z M570.4,5743.4c-0.2-1.8-0.5-1.5-1.4,1.4c-0.6,1.9-0.7,3.3-0.2,2.9
		c0.5-0.3,0.9,0.1,0.9,0.8c0.1,0.7,0.4,0.3,0.6-0.8C570.5,5746.5,570.5,5744.6,570.4,5743.4z M573.4,5739.9
		c-1.5-2.9-1.9-2.3-1.8,3.1l0.1,4.9l1.3-3.1C574,5742.5,574.1,5741.2,573.4,5739.9z M568.2,5741.4c1.5-4.2,1.5-5.5,0.6-7.9
		c-0.9-2.4-0.9-3.3,0.2-5.5c1.5-3.1,2.7-9.8,1.8-9.8c-0.4,0-4.9,0.7-10.1,1.5c-6.1,1-16.7,1.6-30.2,1.8c-11.4,0.1-21.1,0.3-21.7,0.5
		c-0.5,0.1-1.1,0.2-1.4,0.1s-2.3-0.4-4.4-0.6c-2.2-0.2-4.8-0.6-5.9-0.9c-1.8-0.6-2-0.4-1.4,1.6c1.1,4.1,11.3,11.1,16.2,11.1
		c1.3,0,2,0.4,1.7,0.9c-0.3,0.6,0.4,2.4,1.6,4.1l2.2,3l-2.7-2.1c-1.5-1.2-3.4-2.2-4.2-2.2c-0.9,0-2.1-0.5-2.7-1.1
		c-2-2-2-0.4-0.1,3.8c1,2.2,2.5,4,3.3,4c1,0,1.3-0.6,0.9-1.5c-0.4-0.8-0.2-1.2,0.5-0.8c0.7,0.4,8.4,0.8,17.3,1
		c10.4,0.2,19.3,1,25.1,2.1C567.1,5746.9,566.2,5747.1,568.2,5741.4z M492.4,5742.3c-0.6-0.7-0.8-1.5-0.5-1.8c0.4-0.3,0.3-2.1,0-4
		c-0.6-2.9-0.9-3.3-2.1-2.3c-1.3,1.1-1.6,7.7-0.3,6.9c0.4-0.2,0.9,0.5,1.3,1.5c0.4,1,1,1.7,1.5,1.3
		C492.9,5743.6,492.9,5743.1,492.4,5742.3z M497.9,5742.2c0-0.7,0.5-1.4,1-1.6c1.4-0.5-1.8-11.1-3.6-11.8c-1.3-0.5-3,1-3.1,2.7
		c0,0.4,1,0.9,2.4,1.3c1.3,0.3,2.1,0.9,1.8,1.4c-0.3,0.5,0,0.8,0.7,0.8c0.7,0,0.8,0.3,0.6,0.7c-0.4,0.3-1.5-0.2-2.5-1.1
		c-1-0.9-2.1-1.5-2.4-1.2c-0.8,0.8,1.7,10.2,2.5,9.6c0.4-0.3,0.8,0,0.8,0.6s0.5,0.8,0.9,0.5C497.6,5743.8,497.9,5743,497.9,5742.2z
		 M584.7,5739.5c-0.8-0.8-0.9-0.4-0.6,1.8c0.6,3.9,0.8,4.1,1.2,1.5C585.6,5741.6,585.4,5740.1,584.7,5739.5z M474.8,5738.4
		c1.9-0.9,2.2-0.8,1.7,0.5c-0.8,2.3,4.3-2.7,5.9-5.8c0.8-1.6,0.9-2.6,0.3-2.8c-0.6-0.2-0.1-1.5,1.1-2.9c1.8-2.4,1.9-2.9,0.8-5
		c-0.7-1.3-1.7-2.2-2.4-1.9c-0.7,0.3-1.4,0-1.7-0.7c-0.5-0.8-0.7-0.8-1.1,0.1c-0.4,0.8-0.9,0.9-1.8,0.2c-0.8-0.8-1.5,0-2.7,3.1
		c-1.7,4.5-1.9,5.8-0.7,5c0.5-0.3,1,0.7,1.2,2.2c0.3,2.1,0.1,2.6-0.9,2.2c-1-0.4-1.2,0.2-0.7,2.7c0.7,2.8,0.6,3-0.8,1.9
		c-1.3-1.1-1.5-0.8-1.4,2.4c0.1,2.1,0.4,2.8,0.6,1.8C472.4,5740.2,473.5,5738.9,474.8,5738.4z M487.3,5741.3c0-0.8-0.4-1.1-0.8-0.8
		c-0.4,0.3-0.8,0.8-0.8,1.4c0,0.5,0.4,0.8,0.8,0.8C486.9,5742.7,487.3,5742,487.3,5741.3z M448.6,5739.8c3.5-0.7,5.3-1.6,6.3-3.3
		c1.8-2.6,1.8-2.6-3.4-0.9c-2.3,0.8-6.9,1.6-10.4,2c-3.6,0.4-6.4,0.9-6.4,1.3c0,0.4-1.4,0.8-3,0.8c-1.7,0.1-2.5-0.2-1.7-0.5
		c0.8-0.3,1.7-0.8,2-1.2c0.3-0.5,3.9-1.1,8-1.4c4.1-0.3,8.3-0.9,9.3-1.3c1-0.5,3.7-1.3,5.8-1.9c2.4-0.6,4.8-2.1,5.9-3.6l2.1-2.5
		l-3.2-0.6l-3.1-0.6l2.8-0.2c1.6,0,4.2-0.9,6-2.1c4.1-2.5,2.6-3.7-4.6-3.7c-2.8-0.1-16.3-0.3-30-0.7c-16.2-0.3-30.1-0.1-40.1,0.7
		c-8.4,0.7-34.5,1.3-58,1.4c-23.5,0.1-43,0.5-43.3,0.8c-0.3,0.3-0.4,0.8-0.2,0.9c0.3,0.3,20.4,0.6,44.8,0.8c40.6,0.3,44.5,0.5,46,2
		c0.9,0.8,1.9,1.6,2.1,1.6c0.3,0,3.5,0.6,7.3,1.3c3.8,0.8,7.8,1.6,9.1,1.8c2.6,0.5-18.8,1-28.8,0.8c-3.6-0.1-14.2-0.8-23.6-1.6
		c-9.3-0.8-26.1-1.6-37.2-2c-11.1-0.3-20.5-0.7-20.7-0.8c-0.2-0.2,4.6-0.4,10.8-0.5c6.5-0.1,10.2-0.4,8.9-0.8
		c-3.3-1-19.5-1.3-20.1-0.4c-0.3,0.4-0.8,2.9-1.1,5.7c-0.6,4.6-0.6,4.8,1.3,4.3c1-0.3,2.7-0.2,3.6,0.2c0.9,0.5,1.9,0.8,2.2,0.8
		s10,0.5,21.7,1.1s38.2,1.2,58.9,1.3c20.7,0.2,39,0.3,40.7,0.5c4.1,0.2,4.7,1,1,1.3c-1.7,0.2-3.2,0.5-3.5,0.8
		C412.3,5742.2,443.2,5740.8,448.6,5739.8z M505.3,5738c-1.1-2-2.4-3.5-2.7-3.3c-0.4,0.3-0.8-0.2-1.2-0.9c-0.3-0.8-1-1.4-1.6-1.4
		c-0.8,0-0.8,0.4,0.1,1.4c0.7,0.8,0.8,1.4,0.5,1.4s0.1,0.8,1.1,1.7c0.9,0.8,1.2,1.2,0.6,0.8c-2.2-1.4-1.3,1.1,0.8,2.6
		C506.5,5742.9,507.5,5742,505.3,5738z M462.4,5738.4c1.8-0.5,2.5-0.3,2.6,0.6c0,0.8,0.4,0.5,0.8-0.6s0.8-1.3,0.8-0.7
		c0.1,0.6,0.9,1.1,2,1.1c1.3,0,1.9-0.7,1.9-2.1c0-1.2,0.3-3.2,0.6-4.5c0.6-2.3,0.6-2.4-0.9-0.5c-0.9,1.1-0.6-0.2,0.8-3.3
		c1.3-2.8,2.4-5.8,2.4-6.4c0-0.8-3.9,2.5-8.5,7.4c-7,7-8.3,8.8-7.4,9.8c0.7,0.8,1.4,0.9,1.7,0.6
		C459.6,5739.4,461,5738.7,462.4,5738.4z M485.7,5736.9c0-1-0.4-1.6-0.9-1.3c-0.5,0.3-0.9,1.2-0.9,2s0.5,1.3,0.9,1.3
		C485.3,5738.9,485.7,5738.1,485.7,5736.9z M494.2,5722.5c0-0.3-0.4-0.8-0.9-1c-0.5-0.3-0.9-0.1-0.9,0.4c0,0.6,0.5,1,0.9,1
		C493.8,5722.9,494.2,5722.7,494.2,5722.5z M287.1,5711.5c3.2-7.8,9.2-27.3,8.7-27.9c-0.5-0.5-6.7,16.2-9.5,25.6
		c-1.4,4.7-2.8,9.1-3.1,9.9c-0.3,0.8-0.3,1.2,0,0.9C283.5,5719.8,285.2,5715.9,287.1,5711.5z M354.4,5718.2
		c27.1-1.3,27.8-2.9,1.1-2.2c-13.2,0.3-24.2,0.1-29.2-0.5c-22.6-2.9-30.7-4-31.8-4c-0.9,0-3.1,4.7-3.1,6.7
		C291.4,5719.4,330.8,5719.3,354.4,5718.2z M334.3,5710.5l1.9-0.8h-1.9c-1-0.1-6.5-0.5-12.3-0.9c-24-2.1-26.9-2.2-26.9-0.8
		C295.2,5710.3,329.6,5712.4,334.3,5710.5z M489.2,5685.9c-0.3-0.8-0.6-0.5-0.6,0.6c-0.1,1,0.2,1.6,0.5,1.2
		C489.4,5687.4,489.5,5686.6,489.2,5685.9z"/>
	<path class="st4" d="M268.1,6151.3c0.8-0.2,2.2-0.2,2.8,0c0.6,0.3-0.1,0.5-1.7,0.5C267.8,6151.8,267.2,6151.6,268.1,6151.3z"/>
	<path class="st4" d="M229.4,6137c0.9-0.4-1.4-0.8-5.1-0.8c-3.7-0.1-7.2-0.7-7.6-1.1c-1.5-1.5,1.3-4.1,7.8-7.2
		c5.2-2.5,5.8-2.5,7.2-1.2c1.1,1.1,1.3,1.9,0.5,3.4c-0.8,1.5-0.6,2.4,0.8,4.2l1.9,2.4l-2.2,0.6C229.8,6138,227.2,6137.9,229.4,6137z
		"/>
	<path class="st4" d="M270.6,6117.1c0-0.3-0.3-1.5-0.5-2.8c-0.4-2.3-0.4-2.3,1.2-0.8c1.2,1.3,1.4,2,0.5,2.8
		C271.2,6117,270.7,6117.2,270.6,6117.1z"/>
	<path class="st4" d="M253.5,6106.5c-2.4-2.4-2.1-3.3,0.3-1.1c1.1,0.9,2.3,1.7,2.6,1.6c0.3-0.1,0.8,0.1,1,0.4c0.3,0.4,0,0.3-0.7,0
		c-0.6-0.4-1.2-0.4-1.4,0.1C255.3,6107.8,254.4,6107.4,253.5,6106.5z"/>
	<path class="st4" d="M306.3,6090.9c0.7-0.3,1.5-0.2,1.8,0.1c0.4,0.3-0.2,0.6-1.2,0.5C305.9,6091.5,305.6,6091.2,306.3,6090.9z"/>
	<path class="st4" d="M298.3,6090c0.8-0.2,2.2-0.2,2.8,0c0.6,0.3-0.1,0.5-1.7,0.5C297.9,6090.5,297.4,6090.3,298.3,6090z"/>
	<path class="st4" d="M291.2,6089c1.1-0.2,2.8-0.2,3.8,0c0.8,0.3-0.1,0.5-2.2,0.4C290.8,6089.4,290,6089.2,291.2,6089z"/>
	<path class="st4" d="M283.2,6088.1c0.8-0.2,2.4-0.2,3.3,0c0.8,0.3,0.1,0.5-1.7,0.5C283,6088.6,282.3,6088.4,283.2,6088.1z"/>
	<path class="st4" d="M276.2,6087.2c0.6-0.2,1.7-0.2,2.4,0c0.6,0.3,0.1,0.5-1.2,0.5C276,6087.6,275.5,6087.4,276.2,6087.2z"/>
	<path class="st4" d="M308.2,6087.2c0.7-0.3,1.5-0.2,1.8,0.1c0.4,0.3-0.2,0.6-1.2,0.5C307.7,6087.7,307.5,6087.4,308.2,6087.2z"/>
	<path class="st4" d="M266,6085.9c-2.5-0.6-2.7-0.8-0.9-0.8c1.3-0.1,4.1,0.3,6.1,0.7c3.1,0.7,3.3,0.8,0.9,0.8
		C270.6,6086.6,267.8,6086.3,266,6085.9z"/>
	<path class="st4" d="M301.1,6086.2c0.8-0.2,2.4-0.2,3.3,0c0.8,0.3,0.1,0.5-1.7,0.5S300.2,6086.5,301.1,6086.2z"/>
	<path class="st4" d="M296,6085.3c0.7-0.3,1.5-0.2,1.8,0.1c0.4,0.3-0.2,0.6-1.2,0.5C295.5,6085.8,295.2,6085.6,296,6085.3z"/>
	<path class="st4" d="M328,6085.3c0.7-0.3,1.5-0.2,1.8,0.1c0.4,0.3-0.2,0.6-1.2,0.5C327.5,6085.8,327.3,6085.6,328,6085.3z"/>
	<path class="st4" d="M253,6084.3c1.4-0.2,3.7-0.2,5.2,0c1.4,0.2,0.2,0.4-2.6,0.4C252.8,6084.7,251.5,6084.5,253,6084.3z"/>
	<path class="st4" d="M323.3,6084.3c0.6-0.2,1.7-0.2,2.4,0c0.6,0.3,0.1,0.5-1.2,0.5S322.6,6084.6,323.3,6084.3z"/>
	<path class="st4" d="M243.1,6083.4c1.1-0.2,3-0.2,4.2,0c1.1,0.2,0.2,0.4-2.2,0.4C242.9,6083.8,241.9,6083.6,243.1,6083.4z"/>
	<path class="st4" d="M283.7,6083.4c0.6-0.2,1.7-0.2,2.4,0c0.6,0.3,0.1,0.5-1.2,0.5S283,6083.7,283.7,6083.4z"/>
	<path class="st4" d="M318.1,6083.4c0.8-0.2,2.2-0.2,2.8,0c0.6,0.3-0.1,0.5-1.7,0.5C317.7,6083.9,317.2,6083.7,318.1,6083.4z"/>
	<path class="st4" d="M236.5,6082.4c0.7-0.3,1.5-0.2,1.8,0.1c0.4,0.3-0.2,0.6-1.2,0.5C236.1,6083,235.8,6082.7,236.5,6082.4z"/>
	<path class="st4" d="M279.9,6082.4c0.7-0.3,1.5-0.2,1.8,0.1c0.4,0.3-0.2,0.6-1.2,0.5C279.5,6083,279.2,6082.7,279.9,6082.4z"/>
	<path class="st4" d="M311.5,6082.4c0.8-0.2,2.2-0.2,2.8,0c0.6,0.3-0.1,0.5-1.7,0.5C311.1,6082.9,310.6,6082.7,311.5,6082.4z"/>
	<path class="st4" d="M273.3,6081.7c-0.3-0.3-3.2-0.9-6.5-1.4l-6-0.8l6.1,0.4c6.1,0.4,13.1,2.2,8.9,2.3
		C274.7,6082.2,273.6,6082,273.3,6081.7z"/>
	<path class="st4" d="M303,6081.5c0.8-0.2,2.2-0.2,2.8,0c0.6,0.3-0.1,0.5-1.7,0.5C302.6,6082,302.1,6081.8,303,6081.5z"/>
	<path class="st4" d="M296.9,6080.6c0.6-0.2,1.7-0.2,2.4,0c0.6,0.3,0.1,0.5-1.2,0.5S296.2,6080.8,296.9,6080.6z"/>
	<path class="st4" d="M234.9,6075.9c-2.4-0.8-6.8-2-9.9-2.7l-5.7-1.4l5.2,0.5c2.8,0.3,11.6,0.6,19.3,0.7c7.8,0.1,10.9,0.4,7.1,0.6
		l-7.1,0.3l2.4,1.8l2.4,1.9l-4.7-0.1C241.3,6077.4,237.2,6076.7,234.9,6075.9z"/>
	<path class="st4" d="M213,6071.1c0.6-0.2,1.7-0.2,2.4,0c0.6,0.3,0.1,0.5-1.2,0.5C212.8,6071.6,212.3,6071.4,213,6071.1z"/>
	<path class="st4" d="M325.9,6059.1c-6.7-7.3-5.3-27.5,2.2-31.3c3.2-1.5,5.9-0.2,8.4,4.2c4.3,7.7,3.7,20.6-1.3,26.6
		C332.2,6062.1,328.9,6062.3,325.9,6059.1z"/>
	<path class="st4" d="M514.8,5795.8c-1.2-1.5-1.1-1.6,0.4-0.4c1.5,1.2,2,2,1.2,2C516.2,5797.4,515.5,5796.6,514.8,5795.8z"/>
	<path class="st4" d="M505.3,5793c0.6-0.2,1.7-0.2,2.4,0c0.6,0.3,0.1,0.5-1.2,0.5S504.6,5793.2,505.3,5793z"/>
	<path class="st4" d="M533.3,5779.5c-0.3-0.6,0.1-0.7,0.8-0.4c1.7,0.7,2,1.3,0.7,1.3C534.2,5780.4,533.6,5780,533.3,5779.5z"/>
	<path class="st4" d="M538.2,5778.5c0.3-1,0.7-1.9,0.8-1.9s0.5,0.8,0.8,1.9c0.3,1.1,0,1.9-0.8,1.9S537.9,5779.7,538.2,5778.5z"/>
	<path class="st4" d="M526.5,5776.2c0-1.1,0.3-1.1,1.5-0.3c0.8,0.7,1.7,1.3,1.9,1.4c0.2,0.2-0.5,0.3-1.5,0.3
		C527.4,5777.6,526.5,5776.9,526.5,5776.2z"/>
	<path class="st4" d="M539.9,5774.7c0.8-1.1,10.9-4.7,12.2-4.2c0.6,0.2,0.4,0.5-0.4,0.5c-0.8,0.1-3.9,1.1-6.8,2.4
		C541.9,5774.5,539.7,5775.1,539.9,5774.7z"/>
	<path class="st4" d="M100.9,5920.9c0-1,0.5-1.9,0.9-1.9c0.6,0,0.9,0.8,0.9,1.9s-0.4,1.9-0.9,1.9
		C101.4,5922.8,100.9,5922,100.9,5920.9z"/>
	<path class="st4" d="M602.6,5806.4c0-0.2,0.7-0.7,1.5-0.9c0.8-0.3,1.1-0.2,0.8,0.4C604.4,5806.8,602.6,5807.2,602.6,5806.4z"/>
	<path class="st4" d="M605,5804c-1.2-0.6-1.4-0.8-0.5-0.8c0.8,0,2.1,0.4,2.8,0.8C609,5805.1,607.5,5805.1,605,5804z"/>
	<path class="st4" d="M513.6,5831.8c-0.3-0.8,0-1.6,0.6-2c0.6-0.4,0.8-0.3,0.4,0.4c-0.3,0.5-0.1,1.1,0.6,1.3c0.8,0.3,0.8,0.6,0.1,1
		C514.6,5832.9,514,5832.6,513.6,5831.8z"/>
	<path class="st4" d="M516.4,5829.7c-0.8-2.2-0.7-2.8,0.4-1.2c0.8,1.2,0.9,1.2,0.9-0.2c0-0.8,0.6-1.8,1.2-2c0.8-0.4,0.8-0.6-0.1-0.6
		c-0.9-0.1-0.8-0.5,0.3-1.6c0.8-0.8,1.3-2.2,1-2.9s-0.2-1.1,0.3-0.8c0.5,0.3,1.8-0.7,2.8-2c2.8-3.6,2.5-1.6-0.5,2.5
		c-1.9,2.7-2.2,4-1.5,5.3c0.8,1.4,0.5,2.1-1.7,3.3C517.3,5831,516.9,5831,516.4,5829.7z"/>
	<path class="st4" d="M476.5,5724.5c0.6-1.3,1.6-2.1,2.4-1.9c0.7,0.3,1.1,0.6,0.9,0.7s-1.2,0.9-2.4,1.9
		C475.4,5726.9,475.4,5726.9,476.5,5724.5z"/>
	<path class="st4" d="M388.8,5726c3-0.2,7.6-0.2,10.4,0s0.3,0.3-5.5,0.3C388.1,5726.3,385.8,5726.2,388.8,5726z"/>
	<path class="st4" d="M463,5721.9c0.8-0.5,1.9-0.9,2.4-0.9c0.6,0,0.3,0.5-0.5,0.9c-0.8,0.5-1.8,0.9-2.4,0.9
		C462.1,5722.9,462.3,5722.4,463,5721.9z"/>
</g>
</svg>
