<?xml version="1.0" encoding="utf-8"?>
<!-- Generator: Adobe Illustrator 24.1.2, SVG Export Plug-In . SVG Version: 6.00 Build 0)  -->
<svg version="1.1" id="Calque_1" xmlns="http://www.w3.org/2000/svg" xmlns:xlink="http://www.w3.org/1999/xlink" x="0px" y="0px"
	 viewBox="0 0 204 60" style="enable-background:new 0 0 204 60;" xml:space="preserve">
<style type="text/css">
	.st0{fill:#00749A;}
	.st1{fill:#464342;}
</style>
<g id="Layer_2_00000083048796090678718540000011297218929071730819_">
	<g id="XMLID_2_">
		<path class="st0" d="M117.8,26.4H110v0.8c2.5,0,2.8,0.5,2.8,3.6v5.5c0,3.1-0.4,3.6-2.8,3.6c-1.9-0.3-3.1-1.3-4.9-3.1l-2-2.2
			c2.7-0.5,4.1-2.2,4.1-4.1c0-2.4-2-4.2-5.9-4.2h-7.6v0.8c2.5,0,2.8,0.5,2.8,3.6v5.5c0,3.1-0.4,3.6-2.8,3.6v0.8h8.6V40
			c-2.5,0-2.8-0.6-2.8-3.6v-1.5h0.7l4.8,6h12.6c6.2,0,8.9-3.3,8.9-7.3C126.7,29.7,124,26.4,117.8,26.4z M99.6,33.5v-5.8h1.8
			c2,0,2.8,1.3,2.8,2.9c0,1.5-0.9,2.9-2.8,2.9L99.6,33.5L99.6,33.5z M117.9,39.5h-0.3c-1.5,0-1.8-0.4-1.8-2.4v-9.4c0,0,1.9,0,2.1,0
			c4.5,0,5.3,3.3,5.3,5.9C123.3,36.2,122.5,39.5,117.9,39.5z"/>
		<path id="XMLID_15_" class="st0" d="M69.7,35.1l3-8.9c0.9-2.6,0.5-3.3-2.3-3.3v-0.9h8.2v0.9c-2.7,0-3.4,0.6-4.5,3.8l-5,14.8h-0.6
			L64.1,28l-4.5,13.6h-0.6l-4.8-14.8c-1.1-3.1-1.8-3.8-4.3-3.8v-0.9h9.7v0.9c-2.6,0-3.3,0.6-2.3,3.3l2.9,8.9l4.4-13h0.8L69.7,35.1z"
			/>
		<path class="st0" d="M84.4,41.4c-4.7,0-8.7-3.5-8.7-7.8s3.9-7.8,8.7-7.8c4.8,0,8.7,3.5,8.7,7.8C93.1,37.9,89.2,41.4,84.4,41.4z
			 M84.4,27.2c-4,0-5.4,3.6-5.4,6.4c0,2.9,1.4,6.4,5.4,6.4c4.1,0,5.4-3.6,5.4-6.4C89.8,30.8,88.4,27.2,84.4,27.2z"/>
		<path class="st1" d="M137.5,40v0.9h-9.9V40c2.9,0,3.4-0.7,3.4-5.1V28c0-4.3-0.5-5-3.4-5v-0.9h9c4.5,0,6.9,2.3,6.9,5.4
			c0,3-2.5,5.3-6.9,5.3h-2.5V35C134,39.3,134.5,40,137.5,40z M136.5,23.6h-2.5v7.5h2.5c2.5,0,3.6-1.7,3.6-3.7
			C140.1,25.4,138.9,23.6,136.5,23.6z"/>
		<path class="st1" d="M173.3,36.8l-0.2,0.8c-0.4,1.4-0.9,2-3.9,2h-0.6c-2.2,0-2.7-0.5-2.7-3.6v-2c3.4,0,3.6,0.3,3.6,2.6h0.8v-6.5
			h-0.8c0,2.2-0.3,2.6-3.6,2.6v-4.9h2.4c3.1,0,3.6,0.5,3.9,2l0.2,0.8h0.7l-0.3-4.1H160v0.8c2.5,0,2.8,0.5,2.8,3.6v5.5
			c0,2.8-0.3,3.5-2.2,3.6c-1.8-0.3-3.1-1.3-4.8-3.1l-2-2.2c2.7-0.5,4.1-2.2,4.1-4.1c0-2.4-2-4.2-5.9-4.2h-7.6v0.8
			c2.5,0,2.8,0.5,2.8,3.6v5.5c0,3.1-0.4,3.6-2.8,3.6v0.8h8.6v-0.8c-2.5,0-2.8-0.6-2.8-3.6v-1.5h0.7l4.8,6h17.8l0.3-4.1L173.3,36.8
			L173.3,36.8z M150.3,33.5v-5.8h1.8c2,0,2.8,1.3,2.8,2.9c0,1.5-0.9,2.9-2.8,2.9L150.3,33.5L150.3,33.5z"/>
		<path id="XMLID_8_" class="st1" d="M182.1,41.4c-1.8,0-3.3-0.9-3.9-1.5c-0.2,0.2-0.6,0.9-0.7,1.5h-0.8v-6h0.9
			c0.4,2.9,2.3,4.5,4.9,4.5c1.4,0,2.5-0.8,2.5-2.1c0-1.1-1-2-2.8-2.8l-2.5-1.2c-1.8-0.8-3-2.2-3-4.2c0-2.1,2-3.8,4.6-3.8
			c1.4,0,2.7,0.5,3.4,1.1c0.2-0.2,0.4-0.6,0.6-1.2h0.8V31h-0.9c-0.3-2-1.4-3.7-3.7-3.7c-1.2,0-2.3,0.7-2.3,1.8c0,1.1,0.9,1.8,3,2.7
			l2.4,1.2c2.1,1,2.9,2.6,2.9,3.9C187.4,39.5,185,41.4,182.1,41.4z"/>
		<path id="XMLID_7_" class="st1" d="M195.5,41.4c-1.8,0-3.3-0.9-3.9-1.5c-0.2,0.2-0.6,0.9-0.7,1.5h-0.8v-6h0.9
			c0.4,2.9,2.3,4.5,4.9,4.5c1.4,0,2.5-0.8,2.5-2.1c0-1.1-1-2-2.8-2.8l-2.5-1.2c-1.8-0.8-3-2.2-3-4.2c0-2.1,2-3.8,4.6-3.8
			c1.4,0,2.7,0.5,3.4,1.1c0.2-0.2,0.4-0.6,0.6-1.2h0.8V31h-0.9c-0.3-2-1.4-3.7-3.7-3.7c-1.2,0-2.3,0.7-2.3,1.8c0,1.1,0.9,1.8,3,2.7
			l2.4,1.2c2.1,1,2.9,2.6,2.9,3.9C200.7,39.5,198.3,41.4,195.5,41.4z"/>
		<g id="XMLID_3_">
			<path id="XMLID_6_" class="st1" d="M6.5,31.2c0,7.6,4.4,14.2,10.8,17.3L8.2,23.3C7.1,25.7,6.5,28.4,6.5,31.2z"/>
			<path id="XMLID_5_" class="st1" d="M38.7,30.2c0-2.4-0.9-4-1.6-5.3c-1-1.6-1.9-2.9-1.9-4.5c0-1.8,1.3-3.4,3.2-3.4
				c0.1,0,0.2,0,0.3,0c-3.4-3.1-7.9-5.1-13-5.1c-6.7,0-12.6,3.5-16.1,8.6c0.4,0,0.9,0,1.2,0c2,0,5.1-0.3,5.1-0.3
				c1-0.1,1.2,1.4,0.1,1.6c0,0-1.1,0.1-2.2,0.2l7,20.8l4.2-12.6l-3-8.2c-1-0.1-2-0.2-2-0.2c-1-0.1-0.9-1.7,0.1-1.6
				c0,0,3.1,0.3,5.1,0.3c2,0,5.1-0.3,5.1-0.3c1-0.1,1.2,1.4,0.1,1.6c0,0-1.1,0.1-2.2,0.2l6.9,20.6l1.9-6.4
				C38.1,33.7,38.7,31.9,38.7,30.2z"/>
			<path id="XMLID_4_" class="st1" d="M26.1,32.8l-5.8,16.8c1.7,0.5,3.5,0.8,5.4,0.8c2.2,0,4.4-0.4,6.4-1.1C32.1,49.2,32,49.2,32,49
				L26.1,32.8z"/>
			<path id="XMLID_19_" class="st1" d="M42.6,21.9c0.1,0.6,0.1,1.3,0.1,2c0,2-0.4,4.2-1.4,6.9l-5.9,17c5.7-3.3,9.5-9.5,9.5-16.6
				C45,27.8,44.1,24.7,42.6,21.9z"/>
			<path class="st1" d="M25.8,8.8c-12.3,0-22.4,10-22.4,22.4c0,12.3,10,22.4,22.4,22.4c12.3,0,22.4-10,22.4-22.4
				C48.2,18.8,38.1,8.8,25.8,8.8z M25.8,52.6C14,52.6,4.4,43,4.4,31.2S14,9.8,25.8,9.8s21.3,9.6,21.3,21.3
				C47.1,43,37.5,52.6,25.8,52.6z"/>
		</g>
	</g>
</g>
</svg>
